<svg width="36" height="33" viewBox="0 0 36 33" fill="none" xmlns="http://www.w3.org/2000/svg">
<path d="M24.4012 2.8315C24.2164 1.56333 23.1107 0.606934 21.8292 0.606934H13.2703C11.9887 0.606934 10.883 1.56333 10.6983 2.83157L10.2468 5.93178H12.3921L12.799 3.13746C12.8329 2.90506 13.0355 2.72984 13.2703 2.72984H21.8292C22.064 2.72984 22.2666 2.90513 22.3004 3.13746L22.7073 5.93171H24.8527L24.4012 2.8315Z" fill="#FF4136"/>
<path d="M31.2913 21.3921H22.101V22.6312C22.101 23.0233 21.885 23.3833 21.5391 23.5678L18.0493 25.4289C17.8932 25.5121 17.7216 25.5538 17.5498 25.5538C17.3781 25.5538 17.2063 25.5122 17.0502 25.4289L13.5604 23.5678C13.2145 23.3833 12.9985 23.0233 12.9985 22.6312V21.3921H3.80823C2.35955 21.3921 1.03112 20.8693 0 20.0034V31.3038C0 32.0221 0.584421 32.6066 1.3028 32.6066H33.7967C34.515 32.6066 35.0995 32.0222 35.0995 31.3038V20.0034C34.0683 20.8693 32.7399 21.3921 31.2913 21.3921Z" fill="#FF4136"/>
<path d="M33.7967 8.05493H1.3028C0.584421 8.05493 0 8.63942 0 9.35773V15.4615C0 17.5614 1.70836 19.2698 3.80823 19.2698H12.9985V17.4104C12.9985 16.8242 13.4738 16.3489 14.06 16.3489H21.0396C21.6258 16.3489 22.1011 16.8242 22.1011 17.4104V19.2698H31.2913C33.3912 19.2698 35.0995 17.5614 35.0995 15.4615V9.35773C35.0995 8.63942 34.5151 8.05493 33.7967 8.05493Z" fill="#FF4136"/>
<path d="M15.1218 18.4714V21.9945L17.5501 23.2895L19.9784 21.9945V18.4714H15.1218Z" fill="#FF4136"/>
</svg>
