<svg width="64" height="64" viewBox="0 0 64 64" fill="none" xmlns="http://www.w3.org/2000/svg">
<path d="M0 61.3329V62.6663C0 63.4025 0.596999 63.9995 1.33337 63.9995H62.6666C63.403 63.9995 64 63.4025 64 62.6661V61.3328H0V61.3329Z" fill="#FF4136"/>
<path d="M25.3332 24H3.99988C3.2635 24 2.6665 24.597 2.6665 25.3334V62.6667C2.6665 63.4029 3.2635 63.9999 3.99988 63.9999H25.3332C26.0696 63.9999 26.6666 63.4029 26.6666 62.6666V25.3334C26.6665 24.597 26.0696 24 25.3332 24ZM23.9998 61.3333H5.33325V26.6666H23.9998V61.3333Z" fill="#FF4136"/>
<path d="M60.0002 8H38.6669C37.9305 8 37.3335 8.597 37.3335 9.33337V62.6666C37.3335 63.403 37.9305 64 38.6669 64H60.0002C60.7366 64 61.3336 63.403 61.3336 62.6666V9.33337C61.3336 8.597 60.7366 8 60.0002 8ZM58.6668 61.3333H40.0002V10.6666H58.6668V61.3333Z" fill="#FF4136"/>
<path d="M50.6668 0H14.6669C13.9305 0 13.3335 0.596999 13.3335 1.33337V21.3333H16.0002V2.66662H49.3336V5.33324H52.0002V1.33325C52.0002 0.596999 51.4032 0 50.6668 0Z" fill="#FF4136"/>
<path d="M10.6666 29.3335H8V53.3334H10.6666V29.3335Z" fill="#FF4136"/>
<path d="M16.0001 29.3335H13.3335V53.3334H16.0001V29.3335Z" fill="#FF4136"/>
<path d="M21.3331 29.3335H18.6665V53.3334H21.3331V29.3335Z" fill="#FF4136"/>
<path d="M53.3331 14.6665H38.6665V17.3331H53.3331V14.6665Z" fill="#FF4136"/>
<path d="M53.3331 21.3335H38.6665V24.0001H53.3331V21.3335Z" fill="#FF4136"/>
<path d="M53.3331 28H38.6665V30.6666H53.3331V28Z" fill="#FF4136"/>
<path d="M53.3331 34.6665H38.6665V37.3331H53.3331V34.6665Z" fill="#FF4136"/>
<path d="M53.3331 41.3335H38.6665V44.0001H53.3331V41.3335Z" fill="#FF4136"/>
<path d="M53.3331 48H38.6665V50.6666H53.3331V48Z" fill="#FF4136"/>
<path d="M22.6666 6.6665H20V10.6665H22.6666V6.6665Z" fill="#FF4136"/>
<path d="M22.6666 14.6665H20V18.6665H22.6666V14.6665Z" fill="#FF4136"/>
<path d="M28.0001 14.6665H25.3335V18.6665H28.0001V14.6665Z" fill="#FF4136"/>
<path d="M28.0001 6.6665H25.3335V10.6665H28.0001V6.6665Z" fill="#FF4136"/>
<path d="M33.3331 6.6665H30.6665V10.6665H33.3331V6.6665Z" fill="#FF4136"/>
<path d="M33.3331 14.6665H30.6665V18.6665H33.3331V14.6665Z" fill="#FF4136"/>
<path d="M33.3331 22.6665H30.6665V26.6665H33.3331V22.6665Z" fill="#FF4136"/>
<path d="M33.3331 30.6665H30.6665V34.6665H33.3331V30.6665Z" fill="#FF4136"/>
<path d="M33.3331 38.6665H30.6665V42.6665H33.3331V38.6665Z" fill="#FF4136"/>
<path d="M33.3331 46.6665H30.6665V50.6665H33.3331V46.6665Z" fill="#FF4136"/>
<path d="M50.6665 54.6665H43.9999C43.2635 54.6665 42.6665 55.2635 42.6665 55.9999V62.6665H45.3331V57.3331H49.3331V62.6665H51.9999V55.9999C51.9999 55.2635 51.4029 54.6665 50.6665 54.6665Z" fill="#FF4136"/>
<path d="M20 56H9.33337C8.597 56 8 56.597 8 57.3334V62.6667H10.6666V58.6667H18.6666V62.6667H21.3332V57.3334C21.3333 56.597 20.7364 56 20 56Z" fill="#FF4136"/>
</svg>
