<svg width="28" height="28" viewBox="0 0 28 28" fill="none" xmlns="http://www.w3.org/2000/svg">
<path d="M27.0743 11.389H26.0003V11.3337H14.0003V16.667H21.5357C20.4363 19.7717 17.4823 22.0003 14.0003 22.0003C9.58232 22.0003 6.00033 18.4183 6.00033 14.0003C6.00033 9.58232 9.58232 6.00033 14.0003 6.00033C16.0397 6.00033 17.895 6.76966 19.3077 8.02632L23.079 4.25499C20.6977 2.03566 17.5123 0.666992 14.0003 0.666992C6.63699 0.666992 0.666992 6.63699 0.666992 14.0003C0.666992 21.3637 6.63699 27.3337 14.0003 27.3337C21.3637 27.3337 27.3337 21.3637 27.3337 14.0003C27.3337 13.1063 27.2417 12.2337 27.0743 11.389Z" fill="#FFC107"/>
<path d="M2.2041 7.79433L6.58477 11.007C7.7701 8.07233 10.6408 6.00033 14.0001 6.00033C16.0394 6.00033 17.8948 6.76966 19.3074 8.02633L23.0788 4.25499C20.6974 2.03566 17.5121 0.666992 14.0001 0.666992C8.87877 0.666992 4.43743 3.55833 2.2041 7.79433Z" fill="#FF3D00"/>
<path d="M13.9999 27.3338C17.4439 27.3338 20.5732 26.0158 22.9392 23.8725L18.8125 20.3805C17.4291 21.4332 15.7383 22.0023 13.9999 22.0005C10.5319 22.0005 7.58722 19.7891 6.47788 16.7031L2.12988 20.0531C4.33655 24.3711 8.81788 27.3338 13.9999 27.3338Z" fill="#4CAF50"/>
<path d="M27.074 11.3883H26V11.333H14V16.6663H21.5353C21.0095 18.144 20.0622 19.4351 18.8107 20.3803L18.8127 20.379L22.9393 23.871C22.6473 24.1363 27.3333 20.6663 27.3333 13.9997C27.3333 13.1057 27.2413 12.233 27.074 11.3883Z" fill="#1976D2"/>
</svg>
