<svg width="199" height="44" viewBox="0 0 199 44" fill="none" xmlns="http://www.w3.org/2000/svg">
<path d="M64 24.6754C64 35.3474 47.3069 44 26.7228 44C16.2381 44 6.76859 41.7535 0 38.1421C4.64411 39.7174 10.0005 40.7737 15.777 41.1354V23.5904L22.2303 19.5585V41.2641C22.4987 41.2583 22.767 41.2464 23.0354 41.2349V14.5177L29.4887 10.4859V40.7039C29.827 40.6632 30.1657 40.6164 30.4981 40.5637V4.03188L36.951 0V39.274C49.2272 36.1176 57.6581 29.5473 57.6581 21.9624C57.6581 16.7226 53.6321 11.9732 47.1032 8.49001C57.273 11.944 64 17.9014 64 24.6754Z" fill="#03060E"/>
<path d="M44.4636 4.02998L38.0107 0.000488281V37.9393C40.3208 37.2896 42.4817 36.5156 44.4636 35.6363V4.02998Z" fill="#FF4136"/>
<path d="M78.2756 26.5V0.318181H88.6051C90.5909 0.318181 92.2827 0.697443 93.6804 1.45597C95.0781 2.20597 96.1435 3.25 96.8764 4.58807C97.6179 5.91761 97.9886 7.4517 97.9886 9.19034C97.9886 10.929 97.6136 12.4631 96.8636 13.7926C96.1136 15.1222 95.027 16.1577 93.6037 16.8991C92.1889 17.6406 90.4759 18.0114 88.4645 18.0114H81.8807V13.5753H87.5696C88.6349 13.5753 89.5128 13.392 90.2031 13.0256C90.902 12.6506 91.4219 12.1349 91.7628 11.4787C92.1122 10.8139 92.2869 10.0511 92.2869 9.19034C92.2869 8.32102 92.1122 7.5625 91.7628 6.91477C91.4219 6.25852 90.902 5.75142 90.2031 5.39347C89.5043 5.02699 88.6179 4.84375 87.544 4.84375H83.8111V26.5H78.2756ZM107.12 0.318181V26.5H101.584V0.318181H107.12ZM111.674 26.5V0.318181H117.21V21.9361H128.434V26.5H111.674ZM132.1 26.5V0.318181H137.635V21.9361H148.86V26.5H132.1ZM152.526 26.5V0.318181H170.168V4.8821H158.061V11.1207H169.26V15.6847H158.061V21.9361H170.219V26.5H152.526ZM174.569 26.5V0.318181H184.898C186.875 0.318181 188.563 0.671874 189.961 1.37926C191.367 2.07812 192.436 3.07102 193.169 4.35795C193.911 5.63636 194.282 7.14062 194.282 8.87074C194.282 10.6094 193.907 12.1051 193.157 13.358C192.407 14.6023 191.32 15.5568 189.897 16.2216C188.482 16.8864 186.769 17.2188 184.757 17.2188H177.841V12.7699H183.863C184.919 12.7699 185.797 12.625 186.496 12.3352C187.195 12.0455 187.715 11.6108 188.056 11.0312C188.405 10.4517 188.58 9.73153 188.58 8.87074C188.58 8.00142 188.405 7.26847 188.056 6.67188C187.715 6.07528 187.191 5.62358 186.483 5.31676C185.784 5.00142 184.902 4.84375 183.837 4.84375H180.104V26.5H174.569ZM188.708 14.5852L195.215 26.5H189.104L182.738 14.5852H188.708Z" fill="#03060E"/>
<path d="M77.1449 43.5V34.0455H80.3395C81.0781 34.0455 81.6844 34.1716 82.1584 34.424C82.6323 34.6733 82.9832 35.0165 83.2109 35.4535C83.4387 35.8905 83.5526 36.3875 83.5526 36.9446C83.5526 37.5017 83.4387 37.9956 83.2109 38.4265C82.9832 38.8574 82.6339 39.1959 82.163 39.4421C81.6921 39.6853 81.0904 39.8068 80.358 39.8068H77.7727V38.7727H80.321C80.8258 38.7727 81.232 38.6989 81.5398 38.5511C81.8506 38.4034 82.0753 38.1941 82.2138 37.9233C82.3554 37.6494 82.4261 37.3232 82.4261 36.9446C82.4261 36.5661 82.3554 36.2352 82.2138 35.9521C82.0722 35.6689 81.846 35.4504 81.5352 35.2965C81.2243 35.1396 80.8134 35.0611 80.3026 35.0611H78.2898V43.5H77.1449ZM81.5952 39.2528L83.9219 43.5H82.5923L80.3026 39.2528H81.5952ZM88.2094 43.6477C87.5262 43.6477 86.9368 43.4969 86.4413 43.1953C85.9489 42.8906 85.5688 42.4659 85.301 41.9212C85.0364 41.3733 84.904 40.7363 84.904 40.0099C84.904 39.2836 85.0364 38.6435 85.301 38.0895C85.5688 37.5324 85.9412 37.0985 86.4182 36.7876C86.8983 36.4737 87.4585 36.3168 88.0986 36.3168C88.468 36.3168 88.8327 36.3783 89.1927 36.5014C89.5528 36.6245 89.8806 36.8246 90.176 37.1016C90.4715 37.3755 90.7069 37.7386 90.8824 38.1911C91.0578 38.6435 91.1455 39.2005 91.1455 39.8622V40.3239H85.6796V39.3821H90.0376C90.0376 38.982 89.9575 38.625 89.7975 38.3111C89.6405 37.9972 89.4159 37.7494 89.1235 37.5678C88.8342 37.3862 88.4926 37.2955 88.0986 37.2955C87.6647 37.2955 87.2892 37.4032 86.9722 37.6186C86.6583 37.831 86.4167 38.108 86.2474 38.4496C86.0782 38.7912 85.9935 39.1574 85.9935 39.5483V40.1761C85.9935 40.7116 86.0858 41.1656 86.2705 41.538C86.4582 41.9073 86.7183 42.1889 87.0507 42.3828C87.3831 42.5736 87.7693 42.669 88.2094 42.669C88.4957 42.669 88.7542 42.629 88.985 42.549C89.2189 42.4659 89.4205 42.3428 89.5898 42.1797C89.759 42.0135 89.8898 41.8073 89.9822 41.5611L91.0347 41.8565C90.9239 42.2135 90.7377 42.5275 90.4761 42.7983C90.2145 43.0661 89.8914 43.2753 89.5067 43.4261C89.122 43.5739 88.6895 43.6477 88.2094 43.6477ZM94.8895 43.6662C94.4401 43.6662 94.0323 43.5816 93.6661 43.4123C93.2999 43.2399 93.009 42.9922 92.7936 42.669C92.5782 42.3428 92.4704 41.9489 92.4704 41.4872C92.4704 41.081 92.5505 40.7517 92.7105 40.4993C92.8705 40.2438 93.0844 40.0438 93.3522 39.8991C93.6199 39.7545 93.9154 39.6468 94.2385 39.576C94.5648 39.5021 94.8925 39.4437 95.2219 39.4006C95.6527 39.3452 96.002 39.3036 96.2698 39.2759C96.5406 39.2451 96.7376 39.1944 96.8607 39.1236C96.9869 39.0528 97.05 38.9297 97.05 38.7543V38.7173C97.05 38.2618 96.9253 37.9079 96.676 37.6555C96.4298 37.4032 96.0559 37.277 95.5542 37.277C95.0341 37.277 94.6263 37.3909 94.3309 37.6186C94.0354 37.8464 93.8277 38.0895 93.7077 38.348L92.6736 37.9787C92.8582 37.5478 93.1044 37.2124 93.4122 36.9723C93.723 36.7292 94.0616 36.5599 94.4278 36.4645C94.7971 36.366 95.1603 36.3168 95.5173 36.3168C95.7451 36.3168 96.0067 36.3445 96.3021 36.3999C96.6006 36.4522 96.8884 36.5614 97.1654 36.7276C97.4455 36.8938 97.6778 37.1446 97.8625 37.4801C98.0471 37.8156 98.1395 38.2649 98.1395 38.8281V43.5H97.05V42.5398H96.9946C96.9207 42.6937 96.7976 42.8583 96.6253 43.0337C96.4529 43.2092 96.2236 43.3584 95.9374 43.4815C95.6512 43.6046 95.3019 43.6662 94.8895 43.6662ZM95.0557 42.6875C95.4865 42.6875 95.8497 42.6029 96.1452 42.4336C96.4437 42.2643 96.6684 42.0458 96.8192 41.7781C96.973 41.5103 97.05 41.2287 97.05 40.9332V39.9361C97.0038 39.9915 96.9023 40.0423 96.7453 40.0884C96.5914 40.1315 96.4129 40.17 96.2098 40.2038C96.0097 40.2346 95.8143 40.2623 95.6235 40.2869C95.4358 40.3085 95.2834 40.3269 95.1665 40.3423C94.8833 40.3793 94.6186 40.4393 94.3724 40.5224C94.1293 40.6024 93.9323 40.724 93.7815 40.8871C93.6338 41.0471 93.5599 41.2656 93.5599 41.5426C93.5599 41.9212 93.7 42.2074 93.98 42.4013C94.2632 42.5921 94.6217 42.6875 95.0557 42.6875ZM101.218 34.0455V43.5H100.128V34.0455H101.218ZM107.017 43.5V34.0455H112.723V35.0611H108.162V38.2557H112.427V39.2713H108.162V42.4844H112.797V43.5H107.017ZM119.661 37.9972L118.683 38.2741C118.621 38.111 118.53 37.9525 118.41 37.7987C118.293 37.6417 118.133 37.5124 117.93 37.4109C117.727 37.3093 117.467 37.2585 117.15 37.2585C116.716 37.2585 116.355 37.3585 116.065 37.5586C115.779 37.7556 115.636 38.0064 115.636 38.3111C115.636 38.5819 115.734 38.7958 115.931 38.9528C116.128 39.1097 116.436 39.2405 116.855 39.3452L117.907 39.6037C118.541 39.7576 119.014 39.993 119.324 40.31C119.635 40.6239 119.791 41.0286 119.791 41.5241C119.791 41.9304 119.674 42.2936 119.44 42.6136C119.209 42.9337 118.886 43.1861 118.47 43.3707C118.055 43.5554 117.572 43.6477 117.021 43.6477C116.298 43.6477 115.699 43.4908 115.225 43.1768C114.751 42.8629 114.451 42.4044 114.325 41.8011L115.359 41.5426C115.457 41.9242 115.644 42.2105 115.918 42.4013C116.195 42.5921 116.556 42.6875 117.002 42.6875C117.51 42.6875 117.913 42.5798 118.212 42.3643C118.514 42.1458 118.664 41.8842 118.664 41.5795C118.664 41.3333 118.578 41.1271 118.406 40.9609C118.233 40.7917 117.969 40.6655 117.612 40.5824L116.43 40.3054C115.781 40.1515 115.304 39.913 114.999 39.5898C114.697 39.2636 114.546 38.8558 114.546 38.3665C114.546 37.9664 114.659 37.6125 114.883 37.3047C115.111 36.9969 115.42 36.7553 115.811 36.5799C116.205 36.4045 116.652 36.3168 117.15 36.3168C117.852 36.3168 118.403 36.4706 118.803 36.7784C119.206 37.0862 119.492 37.4924 119.661 37.9972ZM124.515 36.4091V37.3324H120.84V36.4091H124.515ZM121.911 34.7102H123V41.4688C123 41.7765 123.045 42.0073 123.134 42.1612C123.227 42.312 123.344 42.4136 123.485 42.4659C123.63 42.5152 123.782 42.5398 123.942 42.5398C124.062 42.5398 124.161 42.5336 124.238 42.5213C124.315 42.5059 124.376 42.4936 124.422 42.4844L124.644 43.4631C124.57 43.4908 124.467 43.5185 124.335 43.5462C124.202 43.5769 124.034 43.5923 123.831 43.5923C123.524 43.5923 123.222 43.5262 122.926 43.3938C122.634 43.2615 122.391 43.0599 122.197 42.7891C122.006 42.5182 121.911 42.1766 121.911 41.7642V34.7102ZM128.24 43.6662C127.791 43.6662 127.383 43.5816 127.017 43.4123C126.65 43.2399 126.36 42.9922 126.144 42.669C125.929 42.3428 125.821 41.9489 125.821 41.4872C125.821 41.081 125.901 40.7517 126.061 40.4993C126.221 40.2438 126.435 40.0438 126.703 39.8991C126.971 39.7545 127.266 39.6468 127.589 39.576C127.915 39.5021 128.243 39.4437 128.572 39.4006C129.003 39.3452 129.353 39.3036 129.62 39.2759C129.891 39.2451 130.088 39.1944 130.211 39.1236C130.337 39.0528 130.401 38.9297 130.401 38.7543V38.7173C130.401 38.2618 130.276 37.9079 130.027 37.6555C129.78 37.4032 129.406 37.277 128.905 37.277C128.385 37.277 127.977 37.3909 127.681 37.6186C127.386 37.8464 127.178 38.0895 127.058 38.348L126.024 37.9787C126.209 37.5478 126.455 37.2124 126.763 36.9723C127.074 36.7292 127.412 36.5599 127.778 36.4645C128.148 36.366 128.511 36.3168 128.868 36.3168C129.096 36.3168 129.357 36.3445 129.653 36.3999C129.951 36.4522 130.239 36.5614 130.516 36.7276C130.796 36.8938 131.028 37.1446 131.213 37.4801C131.398 37.8156 131.49 38.2649 131.49 38.8281V43.5H130.401V42.5398H130.345C130.271 42.6937 130.148 42.8583 129.976 43.0337C129.804 43.2092 129.574 43.3584 129.288 43.4815C129.002 43.6046 128.652 43.6662 128.24 43.6662ZM128.406 42.6875C128.837 42.6875 129.2 42.6029 129.496 42.4336C129.794 42.2643 130.019 42.0458 130.17 41.7781C130.324 41.5103 130.401 41.2287 130.401 40.9332V39.9361C130.354 39.9915 130.253 40.0423 130.096 40.0884C129.942 40.1315 129.763 40.17 129.56 40.2038C129.36 40.2346 129.165 40.2623 128.974 40.2869C128.786 40.3085 128.634 40.3269 128.517 40.3423C128.234 40.3793 127.969 40.4393 127.723 40.5224C127.48 40.6024 127.283 40.724 127.132 40.8871C126.984 41.0471 126.911 41.2656 126.911 41.5426C126.911 41.9212 127.051 42.2074 127.331 42.4013C127.614 42.5921 127.972 42.6875 128.406 42.6875ZM136.562 36.4091V37.3324H132.888V36.4091H136.562ZM133.959 34.7102H135.048V41.4688C135.048 41.7765 135.093 42.0073 135.182 42.1612C135.274 42.312 135.391 42.4136 135.533 42.4659C135.678 42.5152 135.83 42.5398 135.99 42.5398C136.11 42.5398 136.208 42.5336 136.285 42.5213C136.362 42.5059 136.424 42.4936 136.47 42.4844L136.692 43.4631C136.618 43.4908 136.515 43.5185 136.382 43.5462C136.25 43.5769 136.082 43.5923 135.879 43.5923C135.571 43.5923 135.27 43.5262 134.974 43.3938C134.682 43.2615 134.439 43.0599 134.245 42.7891C134.054 42.5182 133.959 42.1766 133.959 41.7642V34.7102ZM141.098 43.6477C140.415 43.6477 139.825 43.4969 139.33 43.1953C138.838 42.8906 138.457 42.4659 138.19 41.9212C137.925 41.3733 137.793 40.7363 137.793 40.0099C137.793 39.2836 137.925 38.6435 138.19 38.0895C138.457 37.5324 138.83 37.0985 139.307 36.7876C139.787 36.4737 140.347 36.3168 140.987 36.3168C141.357 36.3168 141.721 36.3783 142.081 36.5014C142.441 36.6245 142.769 36.8246 143.065 37.1016C143.36 37.3755 143.596 37.7386 143.771 38.1911C143.946 38.6435 144.034 39.2005 144.034 39.8622V40.3239H138.568V39.3821H142.926C142.926 38.982 142.846 38.625 142.686 38.3111C142.529 37.9972 142.305 37.7494 142.012 37.5678C141.723 37.3862 141.381 37.2955 140.987 37.2955C140.553 37.2955 140.178 37.4032 139.861 37.6186C139.547 37.831 139.305 38.108 139.136 38.4496C138.967 38.7912 138.882 39.1574 138.882 39.5483V40.1761C138.882 40.7116 138.975 41.1656 139.159 41.538C139.347 41.9073 139.607 42.1889 139.939 42.3828C140.272 42.5736 140.658 42.669 141.098 42.669C141.384 42.669 141.643 42.629 141.874 42.549C142.108 42.4659 142.309 42.3428 142.478 42.1797C142.648 42.0135 142.778 41.8073 142.871 41.5611L143.923 41.8565C143.813 42.2135 143.626 42.5275 143.365 42.7983C143.103 43.0661 142.78 43.2753 142.395 43.4261C142.011 43.5739 141.578 43.6477 141.098 43.6477ZM154.666 36.4091C154.611 35.9413 154.386 35.5781 153.992 35.3196C153.598 35.0611 153.115 34.9318 152.542 34.9318C152.124 34.9318 151.758 34.9995 151.444 35.1349C151.133 35.2704 150.89 35.4566 150.714 35.6935C150.542 35.9305 150.456 36.1998 150.456 36.5014C150.456 36.7538 150.516 36.9708 150.636 37.1523C150.759 37.3308 150.916 37.4801 151.107 37.6001C151.297 37.7171 151.497 37.814 151.707 37.891C151.916 37.9648 152.108 38.0249 152.284 38.071L153.244 38.3295C153.49 38.3942 153.764 38.4834 154.066 38.5973C154.37 38.7112 154.661 38.8666 154.938 39.0636C155.218 39.2575 155.449 39.5067 155.631 39.8114C155.812 40.1161 155.903 40.4901 155.903 40.9332C155.903 41.4441 155.769 41.9058 155.502 42.3182C155.237 42.7306 154.849 43.0584 154.338 43.3015C153.83 43.5446 153.213 43.6662 152.487 43.6662C151.81 43.6662 151.224 43.5569 150.728 43.3384C150.236 43.1199 149.848 42.8152 149.565 42.4244C149.285 42.0335 149.126 41.5795 149.089 41.0625H150.271C150.302 41.4195 150.422 41.715 150.631 41.9489C150.843 42.1797 151.111 42.352 151.434 42.4659C151.761 42.5767 152.111 42.6321 152.487 42.6321C152.924 42.6321 153.316 42.5613 153.664 42.4197C154.012 42.2751 154.287 42.075 154.491 41.8196C154.694 41.5611 154.795 41.2595 154.795 40.9148C154.795 40.6009 154.707 40.3454 154.532 40.1484C154.357 39.9515 154.126 39.7914 153.84 39.6683C153.553 39.5452 153.244 39.4375 152.912 39.3452L151.748 39.0128C151.01 38.8004 150.425 38.4973 149.994 38.1033C149.563 37.7094 149.348 37.1939 149.348 36.5568C149.348 36.0275 149.491 35.5658 149.777 35.1719C150.066 34.7749 150.454 34.4671 150.94 34.2486C151.43 34.027 151.976 33.9162 152.579 33.9162C153.189 33.9162 153.73 34.0254 154.204 34.244C154.678 34.4594 155.054 34.7549 155.331 35.1303C155.611 35.5058 155.758 35.9321 155.774 36.4091H154.666ZM160.518 43.6477C159.878 43.6477 159.317 43.4954 158.833 43.1907C158.353 42.886 157.978 42.4598 157.707 41.9119C157.439 41.3641 157.305 40.724 157.305 39.9915C157.305 39.2528 157.439 38.6081 157.707 38.0572C157.978 37.5063 158.353 37.0785 158.833 36.7738C159.317 36.4691 159.878 36.3168 160.518 36.3168C161.159 36.3168 161.719 36.4691 162.199 36.7738C162.682 37.0785 163.058 37.5063 163.325 38.0572C163.596 38.6081 163.732 39.2528 163.732 39.9915C163.732 40.724 163.596 41.3641 163.325 41.9119C163.058 42.4598 162.682 42.886 162.199 43.1907C161.719 43.4954 161.159 43.6477 160.518 43.6477ZM160.518 42.669C161.005 42.669 161.405 42.5444 161.719 42.2951C162.033 42.0458 162.265 41.718 162.416 41.3118C162.567 40.9055 162.642 40.4654 162.642 39.9915C162.642 39.5175 162.567 39.0759 162.416 38.6665C162.265 38.2572 162.033 37.9264 161.719 37.674C161.405 37.4216 161.005 37.2955 160.518 37.2955C160.032 37.2955 159.632 37.4216 159.318 37.674C159.004 37.9264 158.772 38.2572 158.621 38.6665C158.47 39.0759 158.395 39.5175 158.395 39.9915C158.395 40.4654 158.47 40.9055 158.621 41.3118C158.772 41.718 159.004 42.0458 159.318 42.2951C159.632 42.5444 160.032 42.669 160.518 42.669ZM166.484 34.0455V43.5H165.395V34.0455H166.484ZM172.948 40.6009V36.4091H174.038V43.5H172.948V42.2997H172.874C172.708 42.6598 172.45 42.966 172.099 43.2184C171.748 43.4677 171.305 43.5923 170.769 43.5923C170.326 43.5923 169.932 43.4954 169.588 43.3015C169.243 43.1045 168.972 42.8091 168.775 42.4151C168.578 42.0181 168.48 41.518 168.48 40.9148V36.4091H169.569V40.8409C169.569 41.358 169.714 41.7704 170.003 42.0781C170.295 42.3859 170.668 42.5398 171.12 42.5398C171.391 42.5398 171.666 42.4705 171.947 42.332C172.23 42.1935 172.467 41.9812 172.657 41.695C172.851 41.4087 172.948 41.044 172.948 40.6009ZM179.117 36.4091V37.3324H175.442V36.4091H179.117ZM176.513 34.7102H177.603V41.4688C177.603 41.7765 177.648 42.0073 177.737 42.1612C177.829 42.312 177.946 42.4136 178.088 42.4659C178.232 42.5152 178.385 42.5398 178.545 42.5398C178.665 42.5398 178.763 42.5336 178.84 42.5213C178.917 42.5059 178.979 42.4936 179.025 42.4844L179.246 43.4631C179.172 43.4908 179.069 43.5185 178.937 43.5462C178.805 43.5769 178.637 43.5923 178.434 43.5923C178.126 43.5923 177.824 43.5262 177.529 43.3938C177.237 43.2615 176.994 43.0599 176.8 42.7891C176.609 42.5182 176.513 42.1766 176.513 41.7642V34.7102ZM180.756 43.5V36.4091H181.845V43.5H180.756ZM181.31 35.2273C181.098 35.2273 180.914 35.1549 180.761 35.0103C180.61 34.8656 180.534 34.6918 180.534 34.4886C180.534 34.2855 180.61 34.1116 180.761 33.967C180.914 33.8223 181.098 33.75 181.31 33.75C181.522 33.75 181.704 33.8223 181.855 33.967C182.009 34.1116 182.085 34.2855 182.085 34.4886C182.085 34.6918 182.009 34.8656 181.855 35.0103C181.704 35.1549 181.522 35.2273 181.31 35.2273ZM186.722 43.6477C186.081 43.6477 185.52 43.4954 185.037 43.1907C184.556 42.886 184.181 42.4598 183.91 41.9119C183.642 41.3641 183.509 40.724 183.509 39.9915C183.509 39.2528 183.642 38.6081 183.91 38.0572C184.181 37.5063 184.556 37.0785 185.037 36.7738C185.52 36.4691 186.081 36.3168 186.722 36.3168C187.362 36.3168 187.922 36.4691 188.402 36.7738C188.885 37.0785 189.261 37.5063 189.528 38.0572C189.799 38.6081 189.935 39.2528 189.935 39.9915C189.935 40.724 189.799 41.3641 189.528 41.9119C189.261 42.4598 188.885 42.886 188.402 43.1907C187.922 43.4954 187.362 43.6477 186.722 43.6477ZM186.722 42.669C187.208 42.669 187.608 42.5444 187.922 42.2951C188.236 42.0458 188.468 41.718 188.619 41.3118C188.77 40.9055 188.845 40.4654 188.845 39.9915C188.845 39.5175 188.77 39.0759 188.619 38.6665C188.468 38.2572 188.236 37.9264 187.922 37.674C187.608 37.4216 187.208 37.2955 186.722 37.2955C186.235 37.2955 185.835 37.4216 185.521 37.674C185.207 37.9264 184.975 38.2572 184.824 38.6665C184.673 39.0759 184.598 39.5175 184.598 39.9915C184.598 40.4654 184.673 40.9055 184.824 41.3118C184.975 41.718 185.207 42.0458 185.521 42.2951C185.835 42.5444 186.235 42.669 186.722 42.669ZM192.687 39.2344V43.5H191.598V36.4091H192.65V37.517H192.743C192.909 37.157 193.161 36.8677 193.5 36.6491C193.838 36.4276 194.275 36.3168 194.811 36.3168C195.291 36.3168 195.711 36.4152 196.071 36.6122C196.431 36.8061 196.711 37.1016 196.911 37.4986C197.111 37.8925 197.211 38.3911 197.211 38.9943V43.5H196.122V39.0682C196.122 38.5111 195.977 38.0772 195.688 37.7663C195.399 37.4524 195.002 37.2955 194.497 37.2955C194.149 37.2955 193.838 37.3709 193.564 37.5217C193.294 37.6725 193.08 37.8925 192.923 38.1818C192.766 38.4711 192.687 38.822 192.687 39.2344Z" fill="#03060E"/>
</svg>
