<svg width="16" height="16" viewBox="0 0 16 16" fill="none" xmlns="http://www.w3.org/2000/svg">
<g clip-path="url(#clip0_1129_1060)">
<path d="M11.6815 9.87378C11.4322 10.2759 11.1598 10.6951 10.8648 11.131C13.3461 11.5021 14.6165 12.2968 14.6165 12.6923C14.6165 13.2189 12.3654 14.4531 7.99983 14.4531C3.6346 14.4531 1.38347 13.2189 1.38347 12.6923C1.38347 12.2968 2.65359 11.5024 5.1356 11.131C4.84021 10.6951 4.56819 10.2759 4.31849 9.87378C1.86961 10.3355 0 11.2848 0 12.6923C0 14.7569 4.02485 15.8373 7.99983 15.8373C11.9755 15.8373 16 14.7569 16 12.6923C16.0003 11.2848 14.1311 10.3355 11.6815 9.87378Z" fill="#FF4136"/>
<path d="M8.01795 0.16333C5.424 0.16333 3.32143 2.2659 3.32143 4.85916C3.32143 6.71971 5.73717 10.2793 7.10355 12.1437C7.31733 12.4353 7.65666 12.6075 8.01795 12.6075C8.37855 12.6075 8.71893 12.4353 8.93166 12.1437C10.298 10.2793 12.7141 6.71971 12.7141 4.85916C12.7141 2.2659 10.6116 0.16333 8.01795 0.16333ZM8.01795 7.775C6.48523 7.775 5.23847 6.52825 5.23847 4.99622C5.23847 3.46384 6.48523 2.21708 8.01795 2.21708C9.55033 2.21708 10.7967 3.46384 10.7967 4.99622C10.7967 6.52825 9.55033 7.775 8.01795 7.775Z" fill="#FF4136"/>
<path d="M8.01795 3.30591C7.08576 3.30591 6.32759 4.06408 6.32759 4.99627C6.32759 5.92776 7.08576 6.68628 8.01795 6.68628C8.94979 6.68628 9.70831 5.92811 9.70831 4.99627C9.70831 4.06373 8.94979 3.30591 8.01795 3.30591Z" fill="#FF4136"/>
</g>
<defs>
<clipPath id="clip0_1129_1060">
<rect width="16" height="16" fill="white"/>
</clipPath>
</defs>
</svg>
