<svg width="199" height="56" viewBox="0 0 199 56" fill="none" xmlns="http://www.w3.org/2000/svg">
<path d="M64 30.6754C64 41.3474 47.3069 50 26.7228 50C16.2381 50 6.76859 47.7535 0 44.1421C4.64411 45.7174 10.0005 46.7737 15.777 47.1354V29.5904L22.2303 25.5585V47.2641C22.4987 47.2583 22.767 47.2464 23.0354 47.2349V20.5177L29.4887 16.4859V46.7039C29.827 46.6632 30.1657 46.6164 30.4981 46.5637V10.0319L36.951 6V45.274C49.2272 42.1176 57.6581 35.5473 57.6581 27.9624C57.6581 22.7226 53.6321 17.9732 47.1032 14.49C57.273 17.944 64 23.9014 64 30.6754Z" fill="white"/>
<path d="M44.4636 10.03L38.0107 6.00049V43.9393C40.3208 43.2896 42.4817 42.5156 44.4636 41.6363V10.03Z" fill="#FF4136"/>
<path d="M78.2756 32.5V6.31818H88.6051C90.5909 6.31818 92.2827 6.69744 93.6804 7.45597C95.0781 8.20597 96.1435 9.25 96.8764 10.5881C97.6179 11.9176 97.9886 13.4517 97.9886 15.1903C97.9886 16.929 97.6136 18.4631 96.8636 19.7926C96.1136 21.1222 95.027 22.1577 93.6037 22.8991C92.1889 23.6406 90.4759 24.0114 88.4645 24.0114H81.8807V19.5753H87.5696C88.6349 19.5753 89.5128 19.392 90.2031 19.0256C90.902 18.6506 91.4219 18.1349 91.7628 17.4787C92.1122 16.8139 92.2869 16.0511 92.2869 15.1903C92.2869 14.321 92.1122 13.5625 91.7628 12.9148C91.4219 12.2585 90.902 11.7514 90.2031 11.3935C89.5043 11.027 88.6179 10.8438 87.544 10.8438H83.8111V32.5H78.2756ZM107.12 6.31818V32.5H101.584V6.31818H107.12ZM111.674 32.5V6.31818H117.21V27.9361H128.434V32.5H111.674ZM132.1 32.5V6.31818H137.635V27.9361H148.86V32.5H132.1ZM152.526 32.5V6.31818H170.168V10.8821H158.061V17.1207H169.26V21.6847H158.061V27.9361H170.219V32.5H152.526ZM174.569 32.5V6.31818H184.898C186.875 6.31818 188.563 6.67187 189.961 7.37926C191.367 8.07812 192.436 9.07102 193.169 10.358C193.911 11.6364 194.282 13.1406 194.282 14.8707C194.282 16.6094 193.907 18.1051 193.157 19.358C192.407 20.6023 191.32 21.5568 189.897 22.2216C188.482 22.8864 186.769 23.2188 184.757 23.2188H177.841V18.7699H183.863C184.919 18.7699 185.797 18.625 186.496 18.3352C187.195 18.0455 187.715 17.6108 188.056 17.0312C188.405 16.4517 188.58 15.7315 188.58 14.8707C188.58 14.0014 188.405 13.2685 188.056 12.6719C187.715 12.0753 187.191 11.6236 186.483 11.3168C185.784 11.0014 184.902 10.8438 183.837 10.8438H180.104V32.5H174.569ZM188.708 20.5852L195.215 32.5H189.104L182.738 20.5852H188.708Z" fill="white"/>
<path d="M77.1449 49.5V40.0455H80.3395C81.0781 40.0455 81.6844 40.1716 82.1584 40.424C82.6323 40.6733 82.9832 41.0165 83.2109 41.4535C83.4387 41.8905 83.5526 42.3875 83.5526 42.9446C83.5526 43.5017 83.4387 43.9956 83.2109 44.4265C82.9832 44.8574 82.6339 45.1959 82.163 45.4421C81.6921 45.6853 81.0904 45.8068 80.358 45.8068H77.7727V44.7727H80.321C80.8258 44.7727 81.232 44.6989 81.5398 44.5511C81.8506 44.4034 82.0753 44.1941 82.2138 43.9233C82.3554 43.6494 82.4261 43.3232 82.4261 42.9446C82.4261 42.5661 82.3554 42.2352 82.2138 41.9521C82.0722 41.6689 81.846 41.4504 81.5352 41.2965C81.2243 41.1396 80.8134 41.0611 80.3026 41.0611H78.2898V49.5H77.1449ZM81.5952 45.2528L83.9219 49.5H82.5923L80.3026 45.2528H81.5952ZM88.2094 49.6477C87.5262 49.6477 86.9368 49.4969 86.4413 49.1953C85.9489 48.8906 85.5688 48.4659 85.301 47.9212C85.0364 47.3733 84.904 46.7363 84.904 46.0099C84.904 45.2836 85.0364 44.6435 85.301 44.0895C85.5688 43.5324 85.9412 43.0985 86.4182 42.7876C86.8983 42.4737 87.4585 42.3168 88.0986 42.3168C88.468 42.3168 88.8327 42.3783 89.1927 42.5014C89.5528 42.6245 89.8806 42.8246 90.176 43.1016C90.4715 43.3755 90.7069 43.7386 90.8824 44.1911C91.0578 44.6435 91.1455 45.2005 91.1455 45.8622V46.3239H85.6796V45.3821H90.0376C90.0376 44.982 89.9575 44.625 89.7975 44.3111C89.6405 43.9972 89.4159 43.7494 89.1235 43.5678C88.8342 43.3862 88.4926 43.2955 88.0986 43.2955C87.6647 43.2955 87.2892 43.4032 86.9722 43.6186C86.6583 43.831 86.4167 44.108 86.2474 44.4496C86.0782 44.7912 85.9935 45.1574 85.9935 45.5483V46.1761C85.9935 46.7116 86.0858 47.1656 86.2705 47.538C86.4582 47.9073 86.7183 48.1889 87.0507 48.3828C87.3831 48.5736 87.7693 48.669 88.2094 48.669C88.4957 48.669 88.7542 48.629 88.985 48.549C89.2189 48.4659 89.4205 48.3428 89.5898 48.1797C89.759 48.0135 89.8898 47.8073 89.9822 47.5611L91.0347 47.8565C90.9239 48.2135 90.7377 48.5275 90.4761 48.7983C90.2145 49.0661 89.8914 49.2753 89.5067 49.4261C89.122 49.5739 88.6895 49.6477 88.2094 49.6477ZM94.8895 49.6662C94.4401 49.6662 94.0323 49.5816 93.6661 49.4123C93.2999 49.2399 93.009 48.9922 92.7936 48.669C92.5782 48.3428 92.4704 47.9489 92.4704 47.4872C92.4704 47.081 92.5505 46.7517 92.7105 46.4993C92.8705 46.2438 93.0844 46.0438 93.3522 45.8991C93.6199 45.7545 93.9154 45.6468 94.2385 45.576C94.5648 45.5021 94.8925 45.4437 95.2219 45.4006C95.6527 45.3452 96.002 45.3036 96.2698 45.2759C96.5406 45.2451 96.7376 45.1944 96.8607 45.1236C96.9869 45.0528 97.05 44.9297 97.05 44.7543V44.7173C97.05 44.2618 96.9253 43.9079 96.676 43.6555C96.4298 43.4032 96.0559 43.277 95.5542 43.277C95.0341 43.277 94.6263 43.3909 94.3309 43.6186C94.0354 43.8464 93.8277 44.0895 93.7077 44.348L92.6736 43.9787C92.8582 43.5478 93.1044 43.2124 93.4122 42.9723C93.723 42.7292 94.0616 42.5599 94.4278 42.4645C94.7971 42.366 95.1603 42.3168 95.5173 42.3168C95.7451 42.3168 96.0067 42.3445 96.3021 42.3999C96.6006 42.4522 96.8884 42.5614 97.1654 42.7276C97.4455 42.8938 97.6778 43.1446 97.8625 43.4801C98.0471 43.8156 98.1395 44.2649 98.1395 44.8281V49.5H97.05V48.5398H96.9946C96.9207 48.6937 96.7976 48.8583 96.6253 49.0337C96.4529 49.2092 96.2236 49.3584 95.9374 49.4815C95.6512 49.6046 95.3019 49.6662 94.8895 49.6662ZM95.0557 48.6875C95.4865 48.6875 95.8497 48.6029 96.1452 48.4336C96.4437 48.2643 96.6684 48.0458 96.8192 47.7781C96.973 47.5103 97.05 47.2287 97.05 46.9332V45.9361C97.0038 45.9915 96.9023 46.0423 96.7453 46.0884C96.5914 46.1315 96.4129 46.17 96.2098 46.2038C96.0097 46.2346 95.8143 46.2623 95.6235 46.2869C95.4358 46.3085 95.2834 46.3269 95.1665 46.3423C94.8833 46.3793 94.6186 46.4393 94.3724 46.5224C94.1293 46.6024 93.9323 46.724 93.7815 46.8871C93.6338 47.0471 93.5599 47.2656 93.5599 47.5426C93.5599 47.9212 93.7 48.2074 93.98 48.4013C94.2632 48.5921 94.6217 48.6875 95.0557 48.6875ZM101.218 40.0455V49.5H100.128V40.0455H101.218ZM107.017 49.5V40.0455H112.723V41.0611H108.162V44.2557H112.427V45.2713H108.162V48.4844H112.797V49.5H107.017ZM119.661 43.9972L118.683 44.2741C118.621 44.111 118.53 43.9525 118.41 43.7987C118.293 43.6417 118.133 43.5124 117.93 43.4109C117.727 43.3093 117.467 43.2585 117.15 43.2585C116.716 43.2585 116.355 43.3585 116.065 43.5586C115.779 43.7556 115.636 44.0064 115.636 44.3111C115.636 44.5819 115.734 44.7958 115.931 44.9528C116.128 45.1097 116.436 45.2405 116.855 45.3452L117.907 45.6037C118.541 45.7576 119.014 45.993 119.324 46.31C119.635 46.6239 119.791 47.0286 119.791 47.5241C119.791 47.9304 119.674 48.2936 119.44 48.6136C119.209 48.9337 118.886 49.1861 118.47 49.3707C118.055 49.5554 117.572 49.6477 117.021 49.6477C116.298 49.6477 115.699 49.4908 115.225 49.1768C114.751 48.8629 114.451 48.4044 114.325 47.8011L115.359 47.5426C115.457 47.9242 115.644 48.2105 115.918 48.4013C116.195 48.5921 116.556 48.6875 117.002 48.6875C117.51 48.6875 117.913 48.5798 118.212 48.3643C118.514 48.1458 118.664 47.8842 118.664 47.5795C118.664 47.3333 118.578 47.1271 118.406 46.9609C118.233 46.7917 117.969 46.6655 117.612 46.5824L116.43 46.3054C115.781 46.1515 115.304 45.913 114.999 45.5898C114.697 45.2636 114.546 44.8558 114.546 44.3665C114.546 43.9664 114.659 43.6125 114.883 43.3047C115.111 42.9969 115.42 42.7553 115.811 42.5799C116.205 42.4045 116.652 42.3168 117.15 42.3168C117.852 42.3168 118.403 42.4706 118.803 42.7784C119.206 43.0862 119.492 43.4924 119.661 43.9972ZM124.515 42.4091V43.3324H120.84V42.4091H124.515ZM121.911 40.7102H123V47.4688C123 47.7765 123.045 48.0073 123.134 48.1612C123.227 48.312 123.344 48.4136 123.485 48.4659C123.63 48.5152 123.782 48.5398 123.942 48.5398C124.062 48.5398 124.161 48.5336 124.238 48.5213C124.315 48.5059 124.376 48.4936 124.422 48.4844L124.644 49.4631C124.57 49.4908 124.467 49.5185 124.335 49.5462C124.202 49.5769 124.034 49.5923 123.831 49.5923C123.524 49.5923 123.222 49.5262 122.926 49.3938C122.634 49.2615 122.391 49.0599 122.197 48.7891C122.006 48.5182 121.911 48.1766 121.911 47.7642V40.7102ZM128.24 49.6662C127.791 49.6662 127.383 49.5816 127.017 49.4123C126.65 49.2399 126.36 48.9922 126.144 48.669C125.929 48.3428 125.821 47.9489 125.821 47.4872C125.821 47.081 125.901 46.7517 126.061 46.4993C126.221 46.2438 126.435 46.0438 126.703 45.8991C126.971 45.7545 127.266 45.6468 127.589 45.576C127.915 45.5021 128.243 45.4437 128.572 45.4006C129.003 45.3452 129.353 45.3036 129.62 45.2759C129.891 45.2451 130.088 45.1944 130.211 45.1236C130.337 45.0528 130.401 44.9297 130.401 44.7543V44.7173C130.401 44.2618 130.276 43.9079 130.027 43.6555C129.78 43.4032 129.406 43.277 128.905 43.277C128.385 43.277 127.977 43.3909 127.681 43.6186C127.386 43.8464 127.178 44.0895 127.058 44.348L126.024 43.9787C126.209 43.5478 126.455 43.2124 126.763 42.9723C127.074 42.7292 127.412 42.5599 127.778 42.4645C128.148 42.366 128.511 42.3168 128.868 42.3168C129.096 42.3168 129.357 42.3445 129.653 42.3999C129.951 42.4522 130.239 42.5614 130.516 42.7276C130.796 42.8938 131.028 43.1446 131.213 43.4801C131.398 43.8156 131.49 44.2649 131.49 44.8281V49.5H130.401V48.5398H130.345C130.271 48.6937 130.148 48.8583 129.976 49.0337C129.804 49.2092 129.574 49.3584 129.288 49.4815C129.002 49.6046 128.652 49.6662 128.24 49.6662ZM128.406 48.6875C128.837 48.6875 129.2 48.6029 129.496 48.4336C129.794 48.2643 130.019 48.0458 130.17 47.7781C130.324 47.5103 130.401 47.2287 130.401 46.9332V45.9361C130.354 45.9915 130.253 46.0423 130.096 46.0884C129.942 46.1315 129.763 46.17 129.56 46.2038C129.36 46.2346 129.165 46.2623 128.974 46.2869C128.786 46.3085 128.634 46.3269 128.517 46.3423C128.234 46.3793 127.969 46.4393 127.723 46.5224C127.48 46.6024 127.283 46.724 127.132 46.8871C126.984 47.0471 126.911 47.2656 126.911 47.5426C126.911 47.9212 127.051 48.2074 127.331 48.4013C127.614 48.5921 127.972 48.6875 128.406 48.6875ZM136.562 42.4091V43.3324H132.888V42.4091H136.562ZM133.959 40.7102H135.048V47.4688C135.048 47.7765 135.093 48.0073 135.182 48.1612C135.274 48.312 135.391 48.4136 135.533 48.4659C135.678 48.5152 135.83 48.5398 135.99 48.5398C136.11 48.5398 136.208 48.5336 136.285 48.5213C136.362 48.5059 136.424 48.4936 136.47 48.4844L136.692 49.4631C136.618 49.4908 136.515 49.5185 136.382 49.5462C136.25 49.5769 136.082 49.5923 135.879 49.5923C135.571 49.5923 135.27 49.5262 134.974 49.3938C134.682 49.2615 134.439 49.0599 134.245 48.7891C134.054 48.5182 133.959 48.1766 133.959 47.7642V40.7102ZM141.098 49.6477C140.415 49.6477 139.825 49.4969 139.33 49.1953C138.838 48.8906 138.457 48.4659 138.19 47.9212C137.925 47.3733 137.793 46.7363 137.793 46.0099C137.793 45.2836 137.925 44.6435 138.19 44.0895C138.457 43.5324 138.83 43.0985 139.307 42.7876C139.787 42.4737 140.347 42.3168 140.987 42.3168C141.357 42.3168 141.721 42.3783 142.081 42.5014C142.441 42.6245 142.769 42.8246 143.065 43.1016C143.36 43.3755 143.596 43.7386 143.771 44.1911C143.946 44.6435 144.034 45.2005 144.034 45.8622V46.3239H138.568V45.3821H142.926C142.926 44.982 142.846 44.625 142.686 44.3111C142.529 43.9972 142.305 43.7494 142.012 43.5678C141.723 43.3862 141.381 43.2955 140.987 43.2955C140.553 43.2955 140.178 43.4032 139.861 43.6186C139.547 43.831 139.305 44.108 139.136 44.4496C138.967 44.7912 138.882 45.1574 138.882 45.5483V46.1761C138.882 46.7116 138.975 47.1656 139.159 47.538C139.347 47.9073 139.607 48.1889 139.939 48.3828C140.272 48.5736 140.658 48.669 141.098 48.669C141.384 48.669 141.643 48.629 141.874 48.549C142.108 48.4659 142.309 48.3428 142.478 48.1797C142.648 48.0135 142.778 47.8073 142.871 47.5611L143.923 47.8565C143.813 48.2135 143.626 48.5275 143.365 48.7983C143.103 49.0661 142.78 49.2753 142.395 49.4261C142.011 49.5739 141.578 49.6477 141.098 49.6477ZM154.666 42.4091C154.611 41.9413 154.386 41.5781 153.992 41.3196C153.598 41.0611 153.115 40.9318 152.542 40.9318C152.124 40.9318 151.758 40.9995 151.444 41.1349C151.133 41.2704 150.89 41.4566 150.714 41.6935C150.542 41.9305 150.456 42.1998 150.456 42.5014C150.456 42.7538 150.516 42.9708 150.636 43.1523C150.759 43.3308 150.916 43.4801 151.107 43.6001C151.297 43.7171 151.497 43.814 151.707 43.891C151.916 43.9648 152.108 44.0249 152.284 44.071L153.244 44.3295C153.49 44.3942 153.764 44.4834 154.066 44.5973C154.37 44.7112 154.661 44.8666 154.938 45.0636C155.218 45.2575 155.449 45.5067 155.631 45.8114C155.812 46.1161 155.903 46.4901 155.903 46.9332C155.903 47.4441 155.769 47.9058 155.502 48.3182C155.237 48.7306 154.849 49.0584 154.338 49.3015C153.83 49.5446 153.213 49.6662 152.487 49.6662C151.81 49.6662 151.224 49.5569 150.728 49.3384C150.236 49.1199 149.848 48.8152 149.565 48.4244C149.285 48.0335 149.126 47.5795 149.089 47.0625H150.271C150.302 47.4195 150.422 47.715 150.631 47.9489C150.843 48.1797 151.111 48.352 151.434 48.4659C151.761 48.5767 152.111 48.6321 152.487 48.6321C152.924 48.6321 153.316 48.5613 153.664 48.4197C154.012 48.2751 154.287 48.075 154.491 47.8196C154.694 47.5611 154.795 47.2595 154.795 46.9148C154.795 46.6009 154.707 46.3454 154.532 46.1484C154.357 45.9515 154.126 45.7914 153.84 45.6683C153.553 45.5452 153.244 45.4375 152.912 45.3452L151.748 45.0128C151.01 44.8004 150.425 44.4973 149.994 44.1033C149.563 43.7094 149.348 43.1939 149.348 42.5568C149.348 42.0275 149.491 41.5658 149.777 41.1719C150.066 40.7749 150.454 40.4671 150.94 40.2486C151.43 40.027 151.976 39.9162 152.579 39.9162C153.189 39.9162 153.73 40.0254 154.204 40.244C154.678 40.4594 155.054 40.7549 155.331 41.1303C155.611 41.5058 155.758 41.9321 155.774 42.4091H154.666ZM160.518 49.6477C159.878 49.6477 159.317 49.4954 158.833 49.1907C158.353 48.886 157.978 48.4598 157.707 47.9119C157.439 47.3641 157.305 46.724 157.305 45.9915C157.305 45.2528 157.439 44.6081 157.707 44.0572C157.978 43.5063 158.353 43.0785 158.833 42.7738C159.317 42.4691 159.878 42.3168 160.518 42.3168C161.159 42.3168 161.719 42.4691 162.199 42.7738C162.682 43.0785 163.058 43.5063 163.325 44.0572C163.596 44.6081 163.732 45.2528 163.732 45.9915C163.732 46.724 163.596 47.3641 163.325 47.9119C163.058 48.4598 162.682 48.886 162.199 49.1907C161.719 49.4954 161.159 49.6477 160.518 49.6477ZM160.518 48.669C161.005 48.669 161.405 48.5444 161.719 48.2951C162.033 48.0458 162.265 47.718 162.416 47.3118C162.567 46.9055 162.642 46.4654 162.642 45.9915C162.642 45.5175 162.567 45.0759 162.416 44.6665C162.265 44.2572 162.033 43.9264 161.719 43.674C161.405 43.4216 161.005 43.2955 160.518 43.2955C160.032 43.2955 159.632 43.4216 159.318 43.674C159.004 43.9264 158.772 44.2572 158.621 44.6665C158.47 45.0759 158.395 45.5175 158.395 45.9915C158.395 46.4654 158.47 46.9055 158.621 47.3118C158.772 47.718 159.004 48.0458 159.318 48.2951C159.632 48.5444 160.032 48.669 160.518 48.669ZM166.484 40.0455V49.5H165.395V40.0455H166.484ZM172.948 46.6009V42.4091H174.038V49.5H172.948V48.2997H172.874C172.708 48.6598 172.45 48.966 172.099 49.2184C171.748 49.4677 171.305 49.5923 170.769 49.5923C170.326 49.5923 169.932 49.4954 169.588 49.3015C169.243 49.1045 168.972 48.8091 168.775 48.4151C168.578 48.0181 168.48 47.518 168.48 46.9148V42.4091H169.569V46.8409C169.569 47.358 169.714 47.7704 170.003 48.0781C170.295 48.3859 170.668 48.5398 171.12 48.5398C171.391 48.5398 171.666 48.4705 171.947 48.332C172.23 48.1935 172.467 47.9812 172.657 47.695C172.851 47.4087 172.948 47.044 172.948 46.6009ZM179.117 42.4091V43.3324H175.442V42.4091H179.117ZM176.513 40.7102H177.603V47.4688C177.603 47.7765 177.648 48.0073 177.737 48.1612C177.829 48.312 177.946 48.4136 178.088 48.4659C178.232 48.5152 178.385 48.5398 178.545 48.5398C178.665 48.5398 178.763 48.5336 178.84 48.5213C178.917 48.5059 178.979 48.4936 179.025 48.4844L179.246 49.4631C179.172 49.4908 179.069 49.5185 178.937 49.5462C178.805 49.5769 178.637 49.5923 178.434 49.5923C178.126 49.5923 177.824 49.5262 177.529 49.3938C177.237 49.2615 176.994 49.0599 176.8 48.7891C176.609 48.5182 176.513 48.1766 176.513 47.7642V40.7102ZM180.756 49.5V42.4091H181.845V49.5H180.756ZM181.31 41.2273C181.098 41.2273 180.914 41.1549 180.761 41.0103C180.61 40.8656 180.534 40.6918 180.534 40.4886C180.534 40.2855 180.61 40.1116 180.761 39.967C180.914 39.8223 181.098 39.75 181.31 39.75C181.522 39.75 181.704 39.8223 181.855 39.967C182.009 40.1116 182.085 40.2855 182.085 40.4886C182.085 40.6918 182.009 40.8656 181.855 41.0103C181.704 41.1549 181.522 41.2273 181.31 41.2273ZM186.722 49.6477C186.081 49.6477 185.52 49.4954 185.037 49.1907C184.556 48.886 184.181 48.4598 183.91 47.9119C183.642 47.3641 183.509 46.724 183.509 45.9915C183.509 45.2528 183.642 44.6081 183.91 44.0572C184.181 43.5063 184.556 43.0785 185.037 42.7738C185.52 42.4691 186.081 42.3168 186.722 42.3168C187.362 42.3168 187.922 42.4691 188.402 42.7738C188.885 43.0785 189.261 43.5063 189.528 44.0572C189.799 44.6081 189.935 45.2528 189.935 45.9915C189.935 46.724 189.799 47.3641 189.528 47.9119C189.261 48.4598 188.885 48.886 188.402 49.1907C187.922 49.4954 187.362 49.6477 186.722 49.6477ZM186.722 48.669C187.208 48.669 187.608 48.5444 187.922 48.2951C188.236 48.0458 188.468 47.718 188.619 47.3118C188.77 46.9055 188.845 46.4654 188.845 45.9915C188.845 45.5175 188.77 45.0759 188.619 44.6665C188.468 44.2572 188.236 43.9264 187.922 43.674C187.608 43.4216 187.208 43.2955 186.722 43.2955C186.235 43.2955 185.835 43.4216 185.521 43.674C185.207 43.9264 184.975 44.2572 184.824 44.6665C184.673 45.0759 184.598 45.5175 184.598 45.9915C184.598 46.4654 184.673 46.9055 184.824 47.3118C184.975 47.718 185.207 48.0458 185.521 48.2951C185.835 48.5444 186.235 48.669 186.722 48.669ZM192.687 45.2344V49.5H191.598V42.4091H192.65V43.517H192.743C192.909 43.157 193.161 42.8677 193.5 42.6491C193.838 42.4276 194.275 42.3168 194.811 42.3168C195.291 42.3168 195.711 42.4152 196.071 42.6122C196.431 42.8061 196.711 43.1016 196.911 43.4986C197.111 43.8925 197.211 44.3911 197.211 44.9943V49.5H196.122V45.0682C196.122 44.5111 195.977 44.0772 195.688 43.7663C195.399 43.4524 195.002 43.2955 194.497 43.2955C194.149 43.2955 193.838 43.3709 193.564 43.5217C193.294 43.6725 193.08 43.8925 192.923 44.1818C192.766 44.4711 192.687 44.822 192.687 45.2344Z" fill="white"/>
</svg>
