<svg width="32" height="32" viewBox="0 0 32 32" fill="none" xmlns="http://www.w3.org/2000/svg">
<path d="M28.6384 17.845L25.773 14.9796C25.6533 14.9846 25.5331 14.9878 25.4123 14.9878C20.7805 14.9878 17.0121 11.2196 17.0121 6.58771C17.0121 6.47159 17.0151 6.35609 17.0198 6.24109L16.0173 5.23853L3.39621 17.8596V30.1271H0.017334V32.0001H31.9825V30.1271H28.6385V17.845H28.6384ZM9.98471 29.2717C9.98471 26.9125 11.3501 24.8665 13.332 23.8816C12.8198 23.2742 12.5103 22.4905 12.5103 21.6357C12.5103 19.7115 14.0757 18.146 15.9999 18.146C17.9241 18.146 19.4896 19.7114 19.4896 21.6357C19.4896 22.4905 19.1801 23.2742 18.6679 23.8816C20.6498 24.8666 22.0151 26.9125 22.0151 29.2717V30.1271H20.1422V29.2717C20.1422 26.9876 18.284 25.1294 16 25.1294C13.716 25.1294 11.8578 26.9876 11.8578 29.2717V30.1271H9.98483V29.2717H9.98471Z" fill="#FF4136"/>
<path d="M16 23.2522C16.8914 23.2522 17.6167 22.5269 17.6167 21.6355C17.6167 20.744 16.8914 20.0188 16 20.0188C15.1086 20.0188 14.3833 20.744 14.3833 21.6355C14.3833 22.5269 15.1086 23.2522 16 23.2522Z" fill="#FF4136"/>
<path d="M0 16.0438L1.32438 17.3682L16.0174 2.67512L17.4014 4.05905C17.6051 3.41512 17.8841 2.80437 18.2286 2.23755L16.0174 0.0263672L9.77962 6.26418V2.50574H4.11525V11.9285L0 16.0438Z" fill="#FF4136"/>
<path d="M27.9519 14.5949L30.6757 17.3186L32 15.9943L29.7714 13.7656C29.2053 14.1107 28.5952 14.3904 27.9519 14.5949Z" fill="#FF4136"/>
<path d="M18.8247 6.58763C18.8247 10.2201 21.7799 13.1753 25.4123 13.1753C29.0448 13.1753 32 10.2201 32 6.58763C32 2.95519 29.0448 0 25.4123 0C21.7799 0 18.8247 2.95519 18.8247 6.58763ZM24.8143 6.58169L27.4513 3.94475L28.7756 5.26912L24.8143 9.2305L22.049 6.46506L23.3733 5.14069L24.8143 6.58169Z" fill="#FF4136"/>
</svg>
