<svg width="31" height="24" viewBox="0 0 31 24" fill="none" xmlns="http://www.w3.org/2000/svg">
<path d="M28.2754 6.36035H27.4425V15.515C27.4425 16.9404 26.6126 18.2293 24.9488 18.2293H8.64844V18.6645C8.64844 19.9247 10.0817 21.1968 11.5536 21.1968H24.016L28.7838 24L28.0924 21.1968H28.2754C29.7462 21.1968 30.41 19.9277 30.41 18.6645V8.53354C30.41 7.27335 29.7462 6.36035 28.2754 6.36035Z" fill="#FF4136"/>
<path d="M22.5153 0H3.58274C1.91699 0 0 1.47978 0 2.90615V14.3804C0 15.694 1.6242 16.6426 3.18213 16.789L2.16824 20.6378L8.66505 16.8157H22.5153C24.181 16.8157 25.7182 15.8058 25.7182 14.3804V5.09714V2.90615C25.7182 1.47978 24.18 0 22.5153 0ZM6.47109 9.68586C5.52644 9.68586 4.76083 8.92025 4.76083 7.9756C4.76083 7.03095 5.52644 6.26534 6.47109 6.26534C7.41475 6.26534 8.18135 7.03095 8.18135 7.9756C8.18135 8.92025 7.41475 9.68586 6.47109 9.68586ZM12.8591 9.68586C11.9144 9.68586 11.1488 8.92025 11.1488 7.9756C11.1488 7.03095 11.9144 6.26534 12.8591 6.26534C13.8037 6.26534 14.5693 7.03095 14.5693 7.9756C14.5693 8.92025 13.8037 9.68586 12.8591 9.68586ZM19.2481 9.68586C18.3034 9.68586 17.5368 8.92025 17.5368 7.9756C17.5368 7.03095 18.3034 6.26534 19.2481 6.26534C20.1907 6.26534 20.9583 7.03095 20.9583 7.9756C20.9583 8.92025 20.1907 9.68586 19.2481 9.68586Z" fill="#FF4136"/>
</svg>
