<svg width="32" height="32" viewBox="0 0 32 32" fill="none" xmlns="http://www.w3.org/2000/svg">
<path d="M28.9518 3.04761H12.6914C12.8568 3.39427 12.952 3.78131 12.952 4.19045V6.47614C12.952 7.94661 11.7558 9.14278 10.2854 9.14278H7.99967C7.02445 9.14278 6.17874 8.61098 5.71398 7.82775C5.24923 8.61098 4.40352 9.14278 3.42829 9.14278H1.1426C0.731939 9.14278 0.347181 9.04145 -0.000244141 8.87536V22.8569C-0.000244141 24.54 1.36431 25.9045 3.04734 25.9045H15.4091C16.2175 25.9045 16.9923 26.2253 17.5638 26.7975L22.4292 31.6629C23.1492 32.3829 24.3805 31.8732 24.3805 30.8546V26.6664C24.3805 26.2458 24.7218 25.9045 25.1424 25.9045H28.9518C30.6349 25.9045 31.9994 24.54 31.9994 22.8569V6.0952C31.9994 4.41217 30.6349 3.04761 28.9518 3.04761ZM25.9043 19.8093H6.09493C5.6736 19.8093 5.33303 19.468 5.33303 19.0474C5.33303 18.6269 5.6736 18.2855 6.09493 18.2855H25.9043C26.3256 18.2855 26.6662 18.6269 26.6662 19.0474C26.6662 19.468 26.3256 19.8093 25.9043 19.8093ZM25.9043 15.238H6.09493C5.6736 15.238 5.33303 14.8966 5.33303 14.4761C5.33303 14.0555 5.6736 13.7142 6.09493 13.7142H25.9043C26.3256 13.7142 26.6662 14.0555 26.6662 14.4761C26.6662 14.8966 26.3256 15.238 25.9043 15.238ZM25.9043 10.6666H15.2377C14.8164 10.6666 14.4758 10.3252 14.4758 9.90468C14.4758 9.48411 14.8164 9.14278 15.2377 9.14278H25.9043C26.3256 9.14278 26.6662 9.48411 26.6662 9.90468C26.6662 10.3252 26.3256 10.6666 25.9043 10.6666Z" fill="#FF4136"/>
<path d="M3.42832 3.04759H3.16318C2.93766 3.04759 2.76166 2.8533 2.78376 2.62854L2.9948 0.515804C3.02223 0.239236 2.80509 0 2.52776 0C2.37538 0 2.23214 0.0739039 2.14453 0.198855L0.696159 2.25064C0.24283 2.89369 -0.000976562 3.66092 -0.000976562 4.44719V6.47613C-0.000976562 7.10698 0.511018 7.61897 1.14187 7.61897H3.42756C4.05841 7.61897 4.57041 7.10698 4.57041 6.47613V4.19043C4.57041 3.55958 4.05917 3.04759 3.42832 3.04759Z" fill="#FF4136"/>
<path d="M10.2855 3.04759H10.0204C9.79484 3.04759 9.61884 2.8533 9.64094 2.62854L9.85198 0.515804C9.87941 0.239236 9.66227 0 9.38494 0C9.23256 0 9.08932 0.0739039 9.0017 0.198855L7.55334 2.25064C7.10001 2.89369 6.8562 3.66092 6.8562 4.44719V6.47613C6.8562 7.10698 7.3682 7.61897 7.99905 7.61897H10.2847C10.9156 7.61897 11.4276 7.10698 11.4276 6.47613V4.19043C11.4276 3.55958 10.9164 3.04759 10.2855 3.04759Z" fill="#FF4136"/>
</svg>
