<svg width="48" height="48" viewBox="0 0 48 48" fill="none" xmlns="http://www.w3.org/2000/svg">
<g clip-path="url(#clip0_191_1257)">
<path d="M43.1997 15.445V6.4002C43.1997 5.51656 42.4834 4.80018 41.5998 4.80018H37.5998C36.7161 4.80018 35.9997 5.51656 35.9997 6.4002V9.4722L25.0286 0.370596C24.4315 -0.123857 23.5672 -0.123857 22.9701 0.370596L0.582956 18.9442C0.247028 19.2228 0.0384168 19.6257 0.00479491 20.0608C-0.0288269 20.4959 0.115414 20.9261 0.404554 21.253L2.39976 23.5042C2.97551 24.1609 3.97048 24.2373 4.63977 23.6762L4.79974 23.5386V46.4C4.79974 47.2837 5.51612 48.0002 6.39975 48.0002H41.5998C42.4834 48.0002 43.1997 47.2837 43.1997 46.4V23.5386L43.3653 23.6762C44.0335 24.2349 45.0253 24.1586 45.5996 23.5042L47.5916 21.253C47.8813 20.9264 48.0262 20.4962 47.9926 20.061C47.959 19.6257 47.7504 19.2227 47.414 18.9442L43.1997 15.445ZM37.5998 6.4002H41.5998V14.1178L37.5998 10.8002V6.4002ZM41.5998 46.4H6.39975V22.2114L23.9997 7.61058L41.5998 22.2114V46.4ZM44.4039 22.4434C44.3991 22.4479 44.3917 22.4479 44.3869 22.4434L24.5109 5.95541C24.2146 5.70921 23.7849 5.70921 23.4885 5.95541L3.59976 22.4434L1.60455 20.1754L24.0078 1.6002L46.3999 20.1922L44.4039 22.4434Z" fill="#FF4136"/>
<path d="M11.9268 30.8513L11.2324 34.7905C11.1559 35.2255 11.4463 35.6401 11.8812 35.7169C11.9271 35.7255 11.9737 35.7298 12.0204 35.7297C12.4084 35.7294 12.7402 35.4509 12.8076 35.0689L13.2244 32.7049L14.314 32.8969L15.1941 35.8521C15.2949 36.1913 15.6066 36.4239 15.9604 36.4241C16.0377 36.4243 16.1146 36.413 16.1884 36.3905C16.6116 36.2644 16.8525 35.8193 16.7268 35.3961L15.982 32.8929C17.0237 32.5444 17.6959 31.5332 17.614 30.4378C17.532 29.3424 16.7168 28.4425 15.6348 28.2529L13.2708 27.8401C12.8362 27.7636 12.4216 28.0536 12.3444 28.4881L11.9277 30.8497L11.9268 30.8513ZM13.7812 29.5529L15.3564 29.8321C15.791 29.9093 16.081 30.3238 16.0044 30.7585C15.9679 30.9675 15.85 31.1534 15.6765 31.2753C15.5029 31.3982 15.2871 31.4458 15.078 31.4073L13.5028 31.1297L13.7812 29.5529Z" fill="#FF4136"/>
<path d="M18.9716 36.9673L22.1228 37.5273C22.169 37.5359 22.2159 37.5402 22.2628 37.5401C22.6857 37.5508 23.0438 37.2303 23.08 36.8089C23.1163 36.3874 22.8181 36.0106 22.3996 35.9489L20.0356 35.5313L20.314 33.9553L22.6772 34.3721C22.7231 34.3804 22.7698 34.3844 22.8164 34.3841C23.2244 34.3763 23.5611 34.0627 23.5979 33.6563C23.6346 33.2499 23.3596 32.8809 22.9596 32.8001L20.5964 32.3833L20.8748 30.8073L23.238 31.2233C23.5245 31.2854 23.822 31.1858 24.0134 30.9637C24.2047 30.7417 24.2594 30.4328 24.1557 30.1586C24.0521 29.8844 23.8068 29.6888 23.5164 29.6489L20.3644 29.0889C19.9295 29.0124 19.5148 29.3028 19.438 29.7377L18.3196 36.0409C18.2829 36.2502 18.3311 36.4656 18.4534 36.6394C18.5757 36.8132 18.7622 36.9312 18.9716 36.9673Z" fill="#FF4136"/>
<path d="M25.2748 38.08C25.7098 38.1565 26.1245 37.8661 26.2012 37.4312L26.7244 34.4656L27.7988 38.076C27.8997 38.4152 28.2114 38.6478 28.5652 38.648H28.6116C28.9816 38.6262 29.2882 38.353 29.3524 37.988L30.4636 31.68C30.5214 31.3951 30.4201 31.1013 30.199 30.9126C29.9779 30.7238 29.6718 30.6699 29.3995 30.7717C29.1272 30.8734 28.9315 31.1149 28.8884 31.4024L28.366 34.368L27.2908 30.76C27.1842 30.4055 26.8483 30.1704 26.4787 30.1918C26.1091 30.2131 25.8024 30.4852 25.7372 30.8496L24.626 37.152C24.5888 37.3611 24.6363 37.5764 24.758 37.7506C24.8797 37.9246 25.0657 38.0431 25.2748 38.08Z" fill="#FF4136"/>
<path d="M31.9003 32.7489L33.4771 33.0265L32.5043 38.5417C32.4278 38.9764 32.7177 39.3909 33.1523 39.4681C33.1985 39.4767 33.2453 39.4809 33.2923 39.4809C33.6805 39.4805 34.0124 39.2016 34.0795 38.8193L35.0523 33.3041L36.6275 33.5825C36.6738 33.5904 36.7206 33.5944 36.7675 33.5945C37.1809 33.5924 37.5245 33.2757 37.5604 32.864C37.5963 32.4522 37.3126 32.0809 36.9059 32.0073L32.1787 31.1737C31.8943 31.1169 31.6015 31.2186 31.4133 31.4393C31.2252 31.66 31.1712 31.9652 31.2724 32.237C31.3734 32.5089 31.6137 32.7047 31.9003 32.7489Z" fill="#FF4136"/>
<path d="M20.7999 16C20.8031 16.7553 21.0757 17.4846 21.5687 18.0568L17.0615 24.4465L12.3895 23.6224C11.0846 23.393 9.84064 24.2641 9.61024 25.5688L7.66384 36.5992C7.43667 37.904 8.30721 39.1469 9.61107 39.3793L35.6111 43.9632C35.7498 43.9876 35.8903 43.9998 36.0311 44.0003C37.194 43.9977 38.1879 43.1614 38.3895 42.016L40.3359 30.9856C40.5648 29.6808 39.6933 28.4372 38.3887 28.2073L32.9142 27.2416L26.4342 18.056C26.9262 17.4838 27.1977 16.7547 27.1998 16C27.1998 14.2327 25.7672 12.8 23.9999 12.8C22.2325 12.8 20.7999 14.2327 20.7999 16ZM38.6271 30.1112C38.7496 30.2846 38.7974 30.4999 38.7599 30.7088L36.8143 41.7392C36.7375 42.1741 36.3228 42.4646 35.8879 42.388L9.88785 37.804C9.45441 37.7268 9.1648 37.3139 9.23985 36.88L11.1855 25.8496C11.2213 25.6404 11.3398 25.4545 11.5143 25.3336C11.688 25.2119 11.9029 25.1642 12.1119 25.2008L38.1119 29.7865C38.3202 29.8213 38.5058 29.9383 38.6271 30.1112ZM18.8031 24.7513L22.8719 18.9824C23.5965 19.2694 24.4032 19.2694 25.1279 18.9824L30.6774 26.8448L18.8031 24.7513ZM25.5999 16C25.5999 16.8837 24.8835 17.6 23.9999 17.6C23.1162 17.6 22.3998 16.8837 22.3998 16C22.3998 15.1164 23.1162 14.4001 23.9999 14.4001C24.8835 14.4001 25.5999 15.1164 25.5999 16Z" fill="#FF4136"/>
</g>
<defs>
<clipPath id="clip0_191_1257">
<rect width="48" height="48" fill="white"/>
</clipPath>
</defs>
</svg>
