<svg width="48" height="48" viewBox="0 0 48 48" fill="none" xmlns="http://www.w3.org/2000/svg">
<g clip-path="url(#clip0_191_1290)">
<mask id="mask0_191_1290" style="mask-type:luminance" maskUnits="userSpaceOnUse" x="0" y="0" width="48" height="48">
<path d="M48 0H0V48H48V0Z" fill="white"/>
</mask>
<g mask="url(#mask0_191_1290)">
<path d="M13.6875 18.75C13.501 18.75 13.3222 18.8241 13.1903 18.9559C13.0584 19.0878 12.9844 19.2667 12.9844 19.4531C12.9844 19.6396 13.0584 19.8185 13.1903 19.9503C13.3222 20.0822 13.501 20.1562 13.6875 20.1562H34.3125C34.499 20.1562 34.6778 20.0822 34.8097 19.9503C34.9415 19.8185 35.0156 19.6396 35.0156 19.4531C35.0156 19.2667 34.9415 19.0878 34.8097 18.9559C34.6778 18.8241 34.499 18.75 34.3125 18.75H33.1406V9.61314L33.9797 10.065C34.0868 10.1226 34.2071 10.1514 34.3287 10.1486C34.4502 10.1458 34.5691 10.1115 34.6734 10.0491C34.7778 9.98662 34.8642 9.89817 34.9242 9.79235C34.9842 9.68653 35.0157 9.56697 35.0156 9.44531V6.25785C35.0155 6.13087 34.981 6.00633 34.9158 5.89737C34.8506 5.78845 34.7571 5.69917 34.6453 5.63908L24.3328 0.0843927C24.2306 0.0290074 24.1162 0 24 0C23.8837 0 23.7694 0.0290074 23.6672 0.0843927L13.3547 5.63442C13.2428 5.6945 13.1494 5.78374 13.0842 5.8927C13.0189 6.00162 12.9845 6.1262 12.9844 6.25314V9.44531C12.9843 9.56697 13.0158 9.68653 13.0758 9.79235C13.1358 9.89817 13.2222 9.98662 13.3265 10.0491C13.4309 10.1115 13.5497 10.1458 13.6713 10.1486C13.7929 10.1514 13.9131 10.1226 14.0203 10.065L14.8593 9.61314V18.75H13.6875ZM26.1975 18.75H21.8025V15.0938C21.8025 14.511 22.034 13.952 22.4461 13.5399C22.8582 13.1278 23.4172 12.8962 24 12.8962C24.5828 12.8962 25.1417 13.1278 25.5538 13.5399C25.966 13.952 26.1975 14.511 26.1975 15.0938V18.75ZM14.3906 6.67313L24 1.50002L33.6094 6.67313V8.26691L24.3328 3.28127C24.2306 3.22588 24.1162 3.19687 24 3.19687C23.8837 3.19687 23.7694 3.22588 23.6672 3.28127L14.3906 8.26879V6.67313ZM16.2656 8.85657L24 4.6941L31.7344 8.85657V18.75H27.6037V15.0938C27.6037 14.138 27.2241 13.2214 26.5482 12.5455C25.8724 11.8697 24.9557 11.49 24 11.49C23.0442 11.49 22.1276 11.8697 21.4517 12.5455C20.7759 13.2214 20.3962 14.138 20.3962 15.0938V18.75H16.2656V8.85657Z" fill="#FF4136"/>
<path d="M47.9533 32.4523L42.87 19.1595C42.8043 18.9879 42.674 18.8487 42.5071 18.7719C42.3401 18.695 42.1497 18.6864 41.9766 18.748L37.5225 20.3361C37.3157 20.4099 37.1259 20.5246 36.9643 20.6732C36.8027 20.8219 36.6727 21.0016 36.582 21.2015C36.4913 21.4015 36.4417 21.6177 36.4363 21.8372C36.4309 22.0567 36.4696 22.275 36.5503 22.4793L36.5963 22.5955L33.8634 23.4899L26.7816 22.1605C26.0777 22.03 25.3545 22.0459 24.6571 22.2072C23.9596 22.3685 23.3029 22.6717 22.7278 23.098L21.4528 24.0449C20.4698 23.4527 19.3435 23.1408 18.1959 23.143H12.8184L11.5547 22.4708C11.6238 22.1155 11.573 21.7472 11.4103 21.4238C11.2476 21.1004 10.9821 20.8402 10.6556 20.6839L6.68156 18.7808C6.59586 18.7397 6.50273 18.7164 6.40778 18.7123C6.31283 18.7083 6.21801 18.7236 6.12916 18.7572C6.04028 18.7909 5.95916 18.8422 5.89069 18.9082C5.82223 18.9741 5.7679 19.0532 5.73094 19.1408L0.0562398 32.5217C-0.0146716 32.6881 -0.0186719 32.8754 0.045072 33.0446C0.108816 33.2138 0.235389 33.3519 0.398427 33.4302L4.36218 35.3361C4.71495 35.5066 5.11728 35.5448 5.49583 35.4436C5.87437 35.3424 6.204 35.1087 6.42467 34.7849L9.90279 37.1108C9.60655 37.465 9.41747 37.8964 9.35782 38.3543C9.29812 38.8122 9.3703 39.2776 9.56588 39.696C9.76146 40.1143 10.0723 40.4681 10.4619 40.716C10.8516 40.9638 11.3038 41.0954 11.7656 41.0952C11.819 41.0952 11.8715 41.0952 11.9241 41.0896C11.9544 41.7112 12.2224 42.2974 12.6727 42.727C13.1231 43.1566 13.7214 43.3967 14.3438 43.3977C14.3962 43.3977 14.4497 43.3977 14.5022 43.3921C14.5325 44.0141 14.8013 44.6011 15.2528 45.03C15.7042 45.4594 16.3036 45.6985 16.9265 45.6972C16.979 45.6972 17.0315 45.6955 17.0841 45.6915C17.1081 46.1611 17.2677 46.6131 17.5435 46.9932C17.8193 47.3733 18.1993 47.6656 18.6377 47.8345C19.0762 48.0029 19.5541 48.0409 20.0136 47.9436C20.4731 47.8459 20.8946 47.6176 21.2269 47.2856L22.245 46.2684L23.6737 47.3436C24.185 47.7232 24.8153 47.9069 25.4505 47.8616C26.0856 47.8166 26.6836 47.5452 27.1359 47.0971L27.2662 46.9675C27.6966 46.5403 27.9667 45.9778 28.0313 45.3747C28.5014 45.5375 29.0077 45.5645 29.4925 45.4533C29.9773 45.342 30.4211 45.0968 30.7734 44.7459L30.9515 44.5679C31.3937 44.1263 31.6654 43.5429 31.7184 42.9205C32.1878 43.083 32.6935 43.1099 33.1773 42.9979C33.6613 42.886 34.1038 42.6398 34.4541 42.2877L34.62 42.1208C35.0465 41.6936 35.3147 41.1337 35.3803 40.5336C35.8328 40.6589 36.3104 40.6625 36.7648 40.544C37.2192 40.4254 37.6341 40.189 37.9678 39.8586L38.0616 39.7649C38.4139 39.4123 38.6596 38.9676 38.7706 38.4817C38.8815 37.9958 38.8532 37.4885 38.6887 37.018L41.6953 34.9292C41.9273 35.1177 42.2068 35.2385 42.503 35.2786C42.7992 35.3186 43.1007 35.2762 43.3744 35.1561L47.5754 33.3449C47.7408 33.2731 47.8726 33.1404 47.9428 32.9742C48.0131 32.8081 48.017 32.6212 47.9533 32.4523ZM23.5659 24.223C23.9854 23.9125 24.4644 23.6919 24.973 23.5747C25.4816 23.4577 26.0088 23.4466 26.5219 23.5424L33.7809 24.9055C33.8972 24.9276 34.0172 24.9199 34.1297 24.883L37.1137 23.9061L40.9865 33.7058L37.8928 35.8545L37.7372 35.7411L31.6359 31.347C31.5409 31.2783 31.4303 31.2345 31.314 31.2196C31.1977 31.2047 31.0795 31.2192 30.9703 31.2617C29.1506 31.9677 27.6337 32.0239 26.4619 31.4277C24.9038 30.6345 24.4303 28.9077 24.4265 28.8964C24.3991 28.7892 24.3466 28.6901 24.2736 28.6069C24.2005 28.5238 24.1089 28.4591 24.0061 28.4181C23.9033 28.3771 23.7923 28.3609 23.6821 28.3709C23.5719 28.3808 23.4656 28.4167 23.3719 28.4755L19.1794 31.1005C18.8046 31.3338 18.3681 31.4483 17.927 31.4291C17.4861 31.4099 17.0611 31.2577 16.7081 30.9927C16.5779 30.8942 16.4725 30.7668 16.4002 30.6205C16.3278 30.4742 16.2905 30.3131 16.2912 30.1499C16.2919 29.9867 16.3307 29.8259 16.4044 29.6802C16.478 29.5346 16.5846 29.4081 16.7156 29.3108L23.5659 24.223ZM5.28467 33.9495C5.2728 33.9782 5.25535 34.0041 5.23327 34.0258C5.21123 34.0476 5.185 34.0647 5.15625 34.0761C5.12623 34.0883 5.09402 34.0939 5.06169 34.0925C5.02935 34.0913 4.99767 34.0831 4.96874 34.0686L1.61249 32.4533L6.7378 20.3596L10.0481 21.9449C10.1014 21.97 10.1429 22.0148 10.1639 22.0699C10.1849 22.1249 10.1837 22.186 10.1606 22.2402L5.28467 33.9495ZM11.04 39.387C10.8484 39.1952 10.7408 38.9353 10.7408 38.6642C10.7408 38.3932 10.8484 38.1332 11.04 37.9414L12.75 36.2295C12.845 36.1346 12.9577 36.0592 13.0818 36.0078C13.2059 35.9564 13.3389 35.9299 13.4733 35.9299C13.6076 35.9299 13.7406 35.9564 13.8647 36.0078C13.9888 36.0592 14.1016 36.1346 14.1966 36.2295C14.2915 36.3245 14.3669 36.4373 14.4183 36.5614C14.4697 36.6855 14.4961 36.8185 14.4961 36.9528C14.4961 37.0872 14.4697 37.2202 14.4183 37.3443C14.3669 37.4684 14.2915 37.5811 14.1966 37.6761L12.4819 39.3908C12.29 39.581 12.0307 39.6878 11.7605 39.6878C11.4902 39.6878 11.231 39.581 11.039 39.3908L11.04 39.387ZM13.6238 41.6896C13.5288 41.5946 13.4534 41.4818 13.402 41.3577C13.3506 41.2336 13.3241 41.1006 13.3241 40.9663C13.3241 40.8319 13.3506 40.6989 13.402 40.5748C13.4534 40.4507 13.5288 40.338 13.6238 40.243L15.1987 38.668C15.2456 38.6211 15.2925 38.5742 15.3328 38.5217L15.3412 38.5302C15.5359 38.3529 15.7913 38.2575 16.0545 38.264C16.3177 38.2705 16.5682 38.3782 16.7539 38.5649C16.9396 38.7515 17.046 39.0026 17.0511 39.2658C17.0562 39.529 16.9595 39.784 16.7812 39.9777L15.2081 41.5508C15.1603 41.5986 15.1144 41.6446 15.0731 41.6989L15.0656 41.6914C14.8741 41.8822 14.6149 41.9894 14.3446 41.9897C14.0743 41.9901 13.8148 41.8835 13.6228 41.6933L13.6238 41.6896ZM16.2065 43.9893C16.0152 43.7973 15.9077 43.5371 15.9077 43.266C15.9077 42.9948 16.0152 42.7347 16.2065 42.5427L17.9212 40.828C18.1139 40.6363 18.3749 40.529 18.6467 40.5297C18.9185 40.5304 19.1789 40.639 19.3706 40.8317C19.5623 41.0244 19.6696 41.2854 19.6689 41.5572C19.6682 41.829 19.5596 42.0894 19.3669 42.2811L17.6513 43.9958C17.459 44.1869 17.1988 44.2939 16.9279 44.293C16.6569 44.2925 16.3972 44.1848 16.2056 43.9932L16.2065 43.9893ZM20.2378 46.2915C20.1428 46.3867 20.0301 46.4621 19.906 46.5136C19.7818 46.5647 19.6488 46.5913 19.5145 46.5913C19.3802 46.5913 19.2472 46.5647 19.1231 46.5136C18.999 46.4621 18.8862 46.3867 18.7913 46.2915C18.6963 46.1968 18.6209 46.0838 18.5695 45.9599C18.5181 45.836 18.4917 45.7029 18.4917 45.5685C18.4917 45.4341 18.5181 45.301 18.5695 45.1771C18.6209 45.0531 18.6963 44.9401 18.7913 44.845L20.3653 43.2702C20.4131 43.2233 20.459 43.1764 20.5003 43.1239L20.5087 43.1323C20.6037 43.0374 20.7164 42.9622 20.8404 42.9108C20.9644 42.8594 21.0973 42.833 21.2315 42.833C21.3658 42.833 21.4987 42.8594 21.6227 42.9108C21.7468 42.9622 21.8595 43.0374 21.9544 43.1323C22.0493 43.2273 22.1246 43.34 22.176 43.464C22.2273 43.588 22.2538 43.7209 22.2538 43.8553C22.2538 43.9893 22.2273 44.1224 22.176 44.2463C22.1246 44.3702 22.0493 44.4832 21.9544 44.5779L20.2378 46.2915ZM37.0687 38.7646L36.975 38.8583C36.7531 39.0786 36.4568 39.2077 36.1444 39.2203C35.832 39.2327 35.5262 39.1277 35.2875 38.9258L34.4634 38.2246L34.4541 38.218L34.4484 38.2123L33 37.0527C32.8548 36.9356 32.669 36.881 32.4835 36.9008C32.298 36.9207 32.1281 37.0134 32.0109 37.1586C31.8938 37.3038 31.8392 37.4896 31.859 37.6751C31.8789 37.8606 31.9717 38.0306 32.1168 38.1477L33.5513 39.3046C33.6815 39.4159 33.7873 39.5531 33.862 39.7073C33.9367 39.8616 33.9787 40.0296 33.9854 40.2009C33.9919 40.3722 33.963 40.543 33.9004 40.7025C33.8378 40.862 33.7429 41.0069 33.6216 41.128L33.4556 41.2939C33.2479 41.503 32.9726 41.6311 32.6789 41.6553C32.3852 41.6796 32.0925 41.5983 31.8534 41.4261L30.0722 40.1539C29.9973 40.097 29.9118 40.0556 29.8207 40.0322C29.7296 40.0089 29.6347 40.0041 29.5417 40.0181C29.4487 40.0321 29.3594 40.0646 29.2792 40.1137C29.199 40.1628 29.1294 40.2276 29.0746 40.304C29.0199 40.3805 28.981 40.4672 28.9604 40.5589C28.9397 40.6507 28.9376 40.7456 28.9543 40.8382C28.9711 40.9308 29.0061 41.0191 29.0576 41.0978C29.109 41.1766 29.1757 41.2442 29.2537 41.2967L29.7947 41.6839C29.9414 41.789 30.0636 41.9246 30.1526 42.0816C30.2416 42.2386 30.2954 42.413 30.3102 42.5929C30.325 42.7727 30.3005 42.9536 30.2383 43.123C30.1762 43.2925 30.0779 43.4463 29.9503 43.5739L29.7713 43.7519C29.5476 43.9753 29.2474 44.1049 28.9315 44.1149C28.6156 44.125 28.3079 44.0141 28.0706 43.8056L26.6766 42.5764C26.5417 42.4576 26.3665 42.3949 26.1868 42.4013C26.0072 42.4076 25.8369 42.4825 25.7107 42.6105C25.5846 42.7386 25.5123 42.9101 25.5087 43.0898C25.5051 43.2694 25.5704 43.4437 25.6913 43.5767L26.3091 44.2563C26.5241 44.4928 26.6399 44.8027 26.6322 45.1221C26.6246 45.4415 26.494 45.7456 26.2678 45.9712L26.1384 46.1004C25.9268 46.3103 25.6471 46.4377 25.3498 46.4595C25.0525 46.4809 24.7573 46.3958 24.5175 46.2187L23.22 45.2464C23.4816 44.8716 23.6318 44.4304 23.6536 43.9736C23.6753 43.517 23.5676 43.0635 23.3428 42.6654C23.1181 42.2673 22.7854 41.9408 22.3832 41.7235C21.9809 41.5063 21.5255 41.4071 21.0694 41.4374C21.0536 41.1155 20.9739 40.8 20.835 40.5093C20.696 40.2186 20.5005 39.9584 20.2599 39.7441C20.0193 39.5297 19.7383 39.3655 19.4336 39.2609C19.1288 39.1563 18.8062 39.1134 18.4847 39.1349C18.4691 38.8133 18.3895 38.498 18.2507 38.2075C18.1118 37.917 17.9164 37.657 17.676 37.4429C17.4355 37.2288 17.1547 37.0648 16.8501 36.9604C16.5455 36.8561 16.2231 36.8135 15.9019 36.8352C15.8793 36.3654 15.7207 35.9124 15.4454 35.5311C15.1702 35.1498 14.7901 34.8567 14.3513 34.6874C13.9126 34.5181 13.4342 34.4799 12.9741 34.5774C12.5141 34.6749 12.0923 34.904 11.76 35.2367L10.9041 36.0936L7.0022 33.4808L11.0419 23.7852L12.3131 24.462C12.4146 24.5164 12.528 24.5447 12.6431 24.5446H18.1959C18.8863 24.5434 19.5691 24.6884 20.1994 24.9702L15.8756 28.1783C15.5693 28.4058 15.3201 28.7015 15.1478 29.042C14.9756 29.3825 14.8849 29.7584 14.8831 30.14C14.8813 30.5216 14.9683 30.8984 15.1373 31.2405C15.3064 31.5826 15.5527 31.8807 15.8568 32.1111C16.438 32.5473 17.1373 32.7977 17.8632 32.8295C18.5891 32.8613 19.3077 32.673 19.9247 32.2892L23.3934 30.1123C23.7684 30.8877 24.4931 31.9977 25.8 32.6689C27.2625 33.4189 29.0484 33.433 31.1119 32.7046L36.9103 36.8802C37.0564 36.9856 37.1778 37.1215 37.2662 37.2784C37.3546 37.4354 37.4078 37.6096 37.4222 37.7892C37.4367 37.9687 37.412 38.1492 37.3498 38.3183C37.2876 38.4873 37.1895 38.6409 37.0622 38.7683L37.0687 38.7646ZM42.8203 33.8652C42.792 33.8773 42.7615 33.8836 42.7308 33.8836C42.7 33.8836 42.6695 33.8773 42.6412 33.8652C42.6129 33.8533 42.5872 33.8359 42.5657 33.814C42.5441 33.7921 42.5271 33.7662 42.5156 33.7377L37.8581 21.9617C37.8459 21.9335 37.8395 21.903 37.8395 21.8722C37.8395 21.8414 37.8459 21.8109 37.8581 21.7827C37.871 21.7546 37.8892 21.7294 37.912 21.7085C37.9347 21.6875 37.9613 21.6713 37.9903 21.6608L41.7975 20.3033L46.3911 32.3249L42.8203 33.8652Z" fill="#FF4136"/>
</g>
</g>
<defs>
<clipPath id="clip0_191_1290">
<rect width="48" height="48" fill="white"/>
</clipPath>
</defs>
</svg>
