<svg width="40" height="40" viewBox="0 0 40 40" fill="none" xmlns="http://www.w3.org/2000/svg">
<g clip-path="url(#clip0_342_3996)">
<path d="M22.5729 16.062C20.8147 16.062 19.3843 17.4924 19.3843 19.2507C19.3843 21.0089 20.8147 22.4393 22.5729 22.4393C24.3311 22.4393 25.7615 21.0089 25.7615 19.2507C25.7615 17.4924 24.3311 16.062 22.5729 16.062ZM22.5729 20.9393C21.6418 20.9393 20.8843 20.1818 20.8843 19.2506C20.8843 18.3195 21.6418 17.562 22.5729 17.562C23.504 17.562 24.2615 18.3195 24.2615 19.2506C24.2615 20.1818 23.504 20.9393 22.5729 20.9393Z" fill="#FF4136"/>
<path d="M36.4347 23.2028L38.9802 20.6573C39.2731 20.3644 39.2731 19.8895 38.9802 19.5965L34.7109 15.3273V7.86916C34.7109 7.45499 34.3751 7.11917 33.9609 7.11917H29.7609C29.3467 7.11917 29.0109 7.45499 29.0109 7.86916V9.62732L24.376 4.99237C23.3818 3.99818 21.764 3.99818 20.7698 4.99237L18.2403 7.52184C17.2847 3.66691 13.796 0.800781 9.64982 0.800781C8.55908 0.800781 7.49376 0.997056 6.4836 1.38421C6.09684 1.53248 5.90348 1.96621 6.05167 2.3529C6.19989 2.73968 6.63367 2.93303 7.02047 2.7849C7.85867 2.46368 8.74337 2.30078 9.64989 2.30078C13.7027 2.30078 16.9999 5.598 16.9999 9.65078C16.9999 13.7035 13.7027 17.0008 9.64989 17.0008C5.59705 17.0008 2.29988 13.7035 2.29988 9.65078C2.29988 8.74433 2.46271 7.85987 2.78378 7.02188C2.93198 6.63512 2.73855 6.20137 2.35178 6.05318C1.96508 5.90489 1.53128 6.0985 1.38308 6.48518C0.996005 7.49514 0.799805 8.56022 0.799805 9.65078C0.799805 13.7969 3.66601 17.2857 7.52085 18.2413L6.16561 19.5965C5.87272 19.8894 5.87272 20.3643 6.16561 20.6573L8.71118 23.2028C8.8113 23.303 8.93708 23.3711 9.07291 23.4025V34.6994H7.72291C7.30868 34.6994 6.97292 35.0353 6.97292 35.4494V38.4496C6.97292 38.8636 7.30868 39.1994 7.72291 39.1994H37.4229C37.8373 39.1994 38.1728 38.8636 38.1728 38.4496V35.4494C38.1728 35.0353 37.8373 34.6994 37.4229 34.6994H36.073V23.4025C36.2053 23.3721 36.3313 23.306 36.4347 23.2028ZM30.5109 8.61914H33.2109V13.8273L30.5109 11.1273V8.61914ZM21.8304 6.05311C22.0287 5.85473 22.2924 5.74553 22.5728 5.74553C22.8532 5.74553 23.1169 5.85473 23.3153 6.05311L37.3891 20.1269L35.904 21.6118L23.1032 8.81079C22.8102 8.51798 22.3354 8.51798 22.0424 8.81079L17.8324 13.0208C18.2621 11.9815 18.4997 10.8434 18.4997 9.65071C18.4997 9.56273 18.4981 9.47522 18.4955 9.38791L21.8304 6.05311ZM7.75659 20.1269L9.38692 18.4965C9.4743 18.499 9.56185 18.5007 9.64982 18.5007C10.8425 18.5007 11.9806 18.263 13.0199 17.8334L9.24159 21.6117L7.75659 20.1269ZM36.6727 37.6994H8.47289V36.1993H36.6727V37.6994ZM25.4229 34.6994H19.7229V25.8494H25.4229V34.6994ZM26.9229 34.6994V25.0994C26.9229 24.6853 26.5871 24.3494 26.1729 24.3494H18.9729C18.5587 24.3494 18.2229 24.6853 18.2229 25.0994V34.6994H10.5729V22.4018L22.5729 10.4018L34.5729 22.4018V34.6994H26.9229Z" fill="#FF4136"/>
<path d="M9.61253 12.1425C8.97163 12.1471 8.78818 12.1178 8.30326 11.8006C7.95651 11.5738 7.49184 11.671 7.26503 12.0176C7.0383 12.3643 7.13541 12.8291 7.48206 13.0559C8.02389 13.4103 8.42548 13.5574 8.90887 13.6127V13.8459C8.90887 14.2601 9.24473 14.5959 9.65889 14.5959C10.073 14.5959 10.4089 14.2601 10.4089 13.8459V13.5178C11.3782 13.2044 11.9981 12.3466 12.1405 11.4997C12.3344 10.346 11.7089 9.30365 10.5841 8.906C9.98152 8.69302 9.31591 8.4363 8.94727 8.14725C8.85217 8.07262 8.81136 7.88533 8.84788 7.69176C8.86694 7.59098 8.95543 7.25421 9.29503 7.15214C9.92933 6.96178 10.5007 7.36752 10.5064 7.37168C10.8386 7.61894 11.3062 7.54867 11.5536 7.21658C11.7985 6.88777 11.7279 6.41978 11.4043 6.17039C11.192 6.01176 10.8379 5.81955 10.4088 5.70533V5.45555C10.4088 5.04136 10.0729 4.70557 9.65878 4.70557C9.24466 4.70557 8.9088 5.04136 8.9088 5.45555V5.70292C8.89365 5.70718 8.87856 5.71102 8.86341 5.71559C8.09901 5.94526 7.52828 6.59579 7.37391 7.41343C7.23127 8.16893 7.47937 8.90234 8.02155 9.32753C8.55946 9.74941 9.33074 10.054 10.0841 10.3203C10.6866 10.5333 10.7044 10.9949 10.6612 11.2511C10.5896 11.6776 10.2307 12.1384 9.61253 12.1425Z" fill="#FF4136"/>
<path d="M3.92188 4.67333C4.33609 4.67333 4.67188 4.33754 4.67188 3.92334C4.67188 3.50913 4.33609 3.17334 3.92188 3.17334C3.50766 3.17334 3.17188 3.50913 3.17188 3.92334C3.17188 4.33754 3.50766 4.67333 3.92188 4.67333Z" fill="#FF4136"/>
</g>
<defs>
<clipPath id="clip0_342_3996">
<rect width="38.4" height="38.4" fill="white" transform="translate(0.799805 0.800049)"/>
</clipPath>
</defs>
</svg>
