<svg width="48" height="48" viewBox="0 0 48 48" fill="none" xmlns="http://www.w3.org/2000/svg">
<g clip-path="url(#clip0_191_1236)">
<path d="M27.2162 19.0774C25.0184 19.0774 23.2304 20.8654 23.2304 23.0633C23.2304 25.261 25.0184 27.0491 27.2162 27.0491C29.414 27.0491 31.202 25.2611 31.202 23.0633C31.202 20.8654 29.4139 19.0774 27.2162 19.0774ZM27.2162 25.174C26.0523 25.174 25.1054 24.2271 25.1054 23.0632C25.1054 21.8993 26.0523 20.9523 27.2162 20.9523C28.3801 20.9523 29.3269 21.8993 29.3269 23.0632C29.3269 24.2271 28.3801 25.174 27.2162 25.174Z" fill="#FF4136"/>
<path d="M44.5436 28.0033L47.7255 24.8213C48.0916 24.4552 48.0916 23.8616 47.7255 23.4954L42.3889 18.1589V8.8362C42.3889 8.3185 41.9691 7.89872 41.4514 7.89872H36.2014C35.6836 7.89872 35.2639 8.3185 35.2639 8.8362V11.0339L29.4703 5.24021C28.2275 3.99748 26.2053 3.99748 24.9624 5.24021L21.8006 8.40206C20.6061 3.58339 16.2452 0.000732422 11.0625 0.000732422C9.6991 0.000732422 8.36745 0.246076 7.10474 0.730013C6.62129 0.915358 6.37959 1.45751 6.56483 1.94089C6.75011 2.42436 7.29233 2.66604 7.77583 2.48089C8.82358 2.07936 9.92945 1.87573 11.0626 1.87573C16.1287 1.87573 20.2501 5.99726 20.2501 11.0632C20.2501 16.1292 16.1287 20.2507 11.0626 20.2507C5.99655 20.2507 1.87509 16.1292 1.87509 11.0632C1.87509 9.93016 2.07863 8.82459 2.47997 7.7771C2.66522 7.29365 2.42344 6.75147 1.93997 6.56624C1.45659 6.38087 0.914343 6.62288 0.729094 7.10624C0.24525 8.36868 0 9.70003 0 11.0632C0 16.2459 3.58275 20.6069 8.40131 21.8013L6.70726 23.4954C6.34115 23.8615 6.34115 24.4551 6.70726 24.8213L9.88922 28.0033C10.0144 28.1284 10.1716 28.2137 10.3414 28.2529V42.3741H8.65388C8.13609 42.3741 7.71639 42.7938 7.71639 43.3115V47.0617C7.71639 47.5792 8.13609 47.999 8.65388 47.999H45.7789C46.2969 47.999 46.7162 47.5792 46.7162 47.0617V43.3115C46.7162 42.7938 46.2969 42.3741 45.7789 42.3741H44.0915V28.2529C44.2569 28.2149 44.4144 28.1323 44.5436 28.0033ZM37.1389 9.77368H40.5139V16.2839L37.1389 12.9089V9.77368ZM26.2882 6.56615C26.5361 6.31816 26.8657 6.18167 27.2163 6.18167C27.5668 6.18167 27.8964 6.31816 28.1443 6.56615L45.7366 24.1583L43.8803 26.0145L27.8792 10.0132C27.513 9.64723 26.9194 9.64723 26.5533 10.0132L21.2907 15.2758C21.8278 13.9766 22.1249 12.5541 22.1249 11.0631C22.1249 10.9532 22.1229 10.8438 22.1197 10.7346L26.2882 6.56615ZM8.69599 24.1583L10.7339 22.1204C10.8431 22.1236 10.9526 22.1257 11.0625 22.1257C12.5534 22.1257 13.976 21.8285 15.2752 21.2915L10.5522 26.0144L8.69599 24.1583ZM44.8412 46.124H9.59136V44.2489H44.8412V46.124ZM30.7789 42.3741H23.6539V31.3115H30.7789V42.3741ZM32.6539 42.3741V30.3741C32.6539 29.8564 32.2341 29.4365 31.7164 29.4365H22.7164C22.1986 29.4365 21.7789 29.8564 21.7789 30.3741V42.3741H12.2164V27.0021L27.2164 12.0021L42.2164 27.0021V42.3741H32.6539Z" fill="#FF4136"/>
<path d="M11.0161 14.178C10.215 14.1838 9.98569 14.1471 9.37954 13.7506C8.9461 13.4671 8.36525 13.5887 8.08175 14.0219C7.79833 14.4552 7.91973 15.0363 8.35303 15.3197C9.03031 15.7627 9.53231 15.9466 10.1365 16.0158V16.3072C10.1365 16.825 10.5564 17.2448 11.0741 17.2448C11.5917 17.2448 12.0115 16.825 12.0115 16.3072V15.8971C13.2232 15.5054 13.9981 14.4332 14.176 13.3746C14.4185 11.9324 13.6366 10.6294 12.2306 10.1324C11.4774 9.86616 10.6453 9.54525 10.1845 9.18394C10.0657 9.09065 10.0147 8.85654 10.0603 8.61458C10.0841 8.4886 10.1948 8.06764 10.6192 7.94005C11.4121 7.7021 12.1263 8.20928 12.1335 8.21448C12.5487 8.52355 13.1333 8.43571 13.4425 8.0206C13.7486 7.60959 13.6603 7.0246 13.2559 6.71286C12.9905 6.51458 12.5479 6.27432 12.0115 6.13154V5.81932C12.0115 5.30157 11.5916 4.88184 11.0739 4.88184C10.5563 4.88184 10.1365 5.30157 10.1365 5.81932V6.12853C10.1175 6.13385 10.0987 6.13865 10.0797 6.14437C9.12422 6.43145 8.41081 7.24461 8.21785 8.26667C8.03955 9.21104 8.34967 10.1278 9.02739 10.6593C9.69978 11.1866 10.6639 11.5673 11.6056 11.9002C12.3587 12.1665 12.3809 12.7435 12.327 13.0638C12.2374 13.5968 11.7889 14.1728 11.0161 14.178Z" fill="#FF4136"/>
<path d="M3.90256 4.84155C4.42032 4.84155 4.84006 4.42181 4.84006 3.90405C4.84006 3.38629 4.42032 2.96655 3.90256 2.96655C3.38479 2.96655 2.96506 3.38629 2.96506 3.90405C2.96506 4.42181 3.38479 4.84155 3.90256 4.84155Z" fill="#FF4136"/>
</g>
<defs>
<clipPath id="clip0_191_1236">
<rect width="48" height="48" fill="white"/>
</clipPath>
</defs>
</svg>
