<svg width="16" height="16" viewBox="0 0 16 16" fill="none" xmlns="http://www.w3.org/2000/svg">
<path d="M2.00723 15.2713C1.8636 15.4867 1.92182 15.7777 2.13723 15.9213C2.21716 15.9746 2.30748 16.0001 2.39682 16.0001C2.54829 16.0001 2.69694 15.9268 2.78726 15.7913L3.14451 15.2554C2.85532 15.1285 2.57979 14.976 2.3211 14.8004L2.00723 15.2713Z" fill="#4E4E4E"/>
<path d="M13.7233 14.8004C13.4647 14.976 13.1892 15.1285 12.8999 15.2554L13.2572 15.7913C13.3475 15.9268 13.4961 16.0001 13.6476 16.0001C13.737 16.0001 13.8273 15.9746 13.9072 15.9213C14.1227 15.7777 14.1808 15.4867 14.0372 15.2713L13.7233 14.8004Z" fill="#4E4E4E"/>
<path d="M0.991028 9.06702V10.5313C0.991028 12.8575 2.88356 14.7501 5.20978 14.7501H10.8348C13.161 14.7501 15.0535 12.8575 15.0535 10.5313V10.2584H7.30797C5.12881 10.2584 3.00762 9.8577 0.991028 9.06702Z" fill="#4E4E4E"/>
<path d="M2.55338 5.52466V1.71875C2.55338 1.28797 2.90384 0.9375 3.33463 0.9375H3.95963C4.39041 0.9375 4.74088 1.28797 4.74088 1.71875V1.94116C4.01625 2.14994 3.49088 2.83 3.49088 3.61984V3.75C3.49088 4.00887 3.70075 4.21875 3.95963 4.21875H6.45963C6.7185 4.21875 6.92838 4.00887 6.92838 3.75V3.59375C6.92838 2.80853 6.39891 2.145 5.67838 1.94041V1.71875C5.67838 0.771031 4.90734 0 3.95963 0H3.33463C2.38691 0 1.61588 0.771031 1.61588 1.71875V5.14825C1.68969 5.17094 1.76256 5.19759 1.83409 5.22931C2.07188 5.335 2.31172 5.43328 2.55338 5.52466Z" fill="#4E4E4E"/>
<path d="M14.9949 7.32875H7.30798C5.27788 7.32875 3.30873 6.91078 1.45438 6.08656C0.950822 5.8635 0.362978 6.0895 0.139572 6.59206C-0.0838342 7.09466 0.142478 7.68347 0.645072 7.90688C2.75592 8.84525 4.99742 9.32091 7.30801 9.32091H14.9949C15.5452 9.32091 15.991 8.87506 15.991 8.32481C15.9909 7.77456 15.5451 7.32875 14.9949 7.32875Z" fill="#4E4E4E"/>
</svg>
