<svg width="23" height="16" viewBox="0 0 23 16" fill="none" xmlns="http://www.w3.org/2000/svg">
<path d="M20.0746 8.82133L19.3635 8.22222V4.12622H20.0746V8.82133ZM22.0248 2.91911L20.8675 0.215111C20.8397 0.151369 20.794 0.0970855 20.736 0.0588867C20.6779 0.020688 20.6099 0.000226571 20.5404 0H18.8977C18.8284 2.66539e-05 18.7606 0.0204303 18.7027 0.0586748C18.6449 0.0969193 18.5996 0.151318 18.5724 0.215111L17.4151 2.91911C17.3919 2.97324 17.3826 3.03226 17.3878 3.09089C17.3931 3.14952 17.4128 3.20593 17.4452 3.25507C17.4777 3.30421 17.5217 3.34455 17.5736 3.37248C17.6254 3.40041 17.6833 3.41505 17.7422 3.41511H21.6977C21.7566 3.41505 21.8145 3.40041 21.8663 3.37248C21.9182 3.34455 21.9622 3.30421 21.9946 3.25507C22.0271 3.20593 22.0468 3.14952 22.052 3.09089C22.0573 3.03226 22.048 2.97324 22.0248 2.91911ZM5.3955 7.04V6.65956C5.39611 6.40702 5.4967 6.165 5.67527 5.98644C5.85384 5.80787 6.09586 5.70728 6.34839 5.70667H8.60439C8.85701 5.707 9.09919 5.8075 9.27782 5.98613C9.45645 6.16476 9.55695 6.40693 9.55728 6.65956V7.04H11.0826V6.65956C11.0829 6.40693 11.1834 6.16476 11.3621 5.98613C11.5407 5.8075 11.7829 5.707 12.0355 5.70667H14.2915C14.544 5.70728 14.7861 5.80787 14.9646 5.98644C15.1432 6.165 15.2438 6.40702 15.2444 6.65956V7.04H17.0755V5.18044C17.0748 4.6606 16.868 4.16225 16.5004 3.79467C16.1328 3.42708 15.6345 3.22026 15.1146 3.21956H5.52528C5.00544 3.22026 4.50709 3.42708 4.1395 3.79467C3.77192 4.16225 3.5651 4.6606 3.56439 5.18044V7.04H5.3955ZM19.2995 10.0267H20.4053L20.0746 9.74933L19.3635 9.152L17.6959 7.75111H2.94395L0.234613 10.0267H19.2995ZM1.60883 14.8071H0.897724V15.6444C0.898005 15.7387 0.935556 15.8289 1.00217 15.8955C1.06879 15.9622 1.15907 15.9997 1.25328 16H2.98483C3.07905 15.9997 3.16932 15.9622 3.23594 15.8955C3.30256 15.8289 3.34011 15.7387 3.34039 15.6444V14.8071H1.60883ZM18.0106 14.8071H17.2995V15.6444C17.2998 15.7387 17.3373 15.8289 17.404 15.8955C17.4706 15.9622 17.5608 15.9997 17.6551 16H19.3866C19.4808 15.9997 19.5711 15.9622 19.6377 15.8955C19.7043 15.8289 19.7419 15.7387 19.7422 15.6444V14.8071H18.0106ZM0.719946 10.7378H0.00883484V13.7404C0.00911621 13.8347 0.0466668 13.9249 0.113285 13.9916C0.179904 14.0582 0.270178 14.0957 0.36439 14.096H20.2755C20.3697 14.0957 20.46 14.0582 20.5266 13.9916C20.5932 13.9249 20.6308 13.8347 20.6311 13.7404V10.7378H0.719946Z" fill="#4E4E4E"/>
</svg>
