<svg width="32" height="21" viewBox="0 0 32 21" fill="none" xmlns="http://www.w3.org/2000/svg">
<path d="M31.7967 9.5754C31.5108 9.18434 24.6993 0 15.9999 0C7.3004 0 0.488626 9.18434 0.203063 9.57503C-0.0676877 9.94603 -0.0676877 10.4492 0.203063 10.8202C0.488626 11.2113 7.3004 20.3956 15.9999 20.3956C24.6993 20.3956 31.5108 11.2112 31.7967 10.8205C32.0678 10.4496 32.0678 9.94603 31.7967 9.5754ZM15.9999 18.2857C9.59178 18.2857 4.0417 12.1899 2.39876 10.1971C4.03957 8.20253 9.57803 2.10988 15.9999 2.10988C22.4076 2.10988 27.9573 8.20465 29.601 10.1985C27.9601 12.193 22.4217 18.2857 15.9999 18.2857Z" fill="#03060E"/>
<path d="M15.9999 3.86816C12.5097 3.86816 9.67017 6.70773 9.67017 10.1979C9.67017 13.688 12.5097 16.5276 15.9999 16.5276C19.49 16.5276 22.3296 13.688 22.3296 10.1979C22.3296 6.70773 19.49 3.86816 15.9999 3.86816ZM15.9999 14.4176C13.673 14.4176 11.7801 12.5247 11.7801 10.1979C11.7801 7.87105 13.6731 5.97811 15.9999 5.97811C18.3267 5.97811 20.2196 7.87105 20.2196 10.1979C20.2196 12.5247 18.3268 14.4176 15.9999 14.4176Z" fill="#03060E"/>
</svg>
