<svg width="65" height="56" viewBox="0 0 65 56" fill="none" xmlns="http://www.w3.org/2000/svg">
<path d="M55.5363 17.6886H43.4053V1.64628C43.4053 0.737021 44.1424 0 45.0516 0H53.8899C54.7991 0 55.5362 0.737148 55.5362 1.64628V17.6886H55.5363Z" fill="#FF4136"/>
<path d="M55.5363 17.6886H43.4053V1.64628C43.4053 0.737021 44.1424 0 45.0516 0H53.8899C54.7991 0 55.5362 0.737148 55.5362 1.64628V17.6886H55.5363Z" fill="#FF4136"/>
<path d="M55.5365 1.64639V17.6882H48.064V0.000488281H53.8906C54.7987 0.000488281 55.5365 0.736879 55.5365 1.64639Z" fill="#FF4136"/>
<path d="M55.8859 21.5623V52.9098C55.8859 54.6166 54.5023 56.0001 52.7956 56.0001H12.018C10.3113 56.0001 8.92773 54.6166 8.92773 52.9098V21.5623L25.843 9.04199H38.9706L55.8859 21.5623Z" fill="#FF4136"/>
<path d="M8.92773 35.3384V52.9098C8.92773 54.6165 10.3113 56.0001 12.018 56.0001H52.7956C54.5023 56.0001 55.8859 54.6165 55.8859 52.9098V35.3384H8.92773Z" fill="white"/>
<path d="M55.8862 21.5615V35.3373H8.927V21.5615L25.8434 9.04102H38.9697L55.8862 21.5615Z" fill="#FF4136"/>
<path d="M8.927 21.5615V35.3373H55.8862V21.5615L38.9697 9.04102H25.8434L8.927 21.5615Z" fill="white"/>
<path d="M32.407 9.04199V56.0001H52.7958C54.5025 56.0001 55.8861 54.6166 55.8861 52.9098V21.5623L38.9708 9.04199H32.407Z" fill="white"/>
<path d="M33.6947 10.0562L57.9575 28.0149C59.9411 29.4831 62.7549 28.95 64.064 26.8581C65.2362 24.9848 64.7702 22.525 62.9941 21.2102L35.891 1.14925C33.8209 -0.383085 30.9927 -0.383085 28.9224 1.14925L1.81945 21.2102C0.0432028 22.5249 -0.422782 24.9848 0.749562 26.8581C2.05869 28.95 4.87252 29.4831 6.85608 28.0149L31.1189 10.0562C31.884 9.4898 32.9296 9.4898 33.6947 10.0562Z" fill="#FF4136"/>
<path d="M33.6947 10.0562L57.9575 28.0149C59.9411 29.4831 62.7549 28.95 64.064 26.8581C65.2362 24.9848 64.7702 22.525 62.9941 21.2102L35.891 1.14925C33.8209 -0.383085 30.9927 -0.383085 28.9224 1.14925L1.81945 21.2102C0.0432028 22.5249 -0.422782 24.9848 0.749562 26.8581C2.05869 28.95 4.87252 29.4831 6.85608 28.0149L31.1189 10.0562C31.884 9.4898 32.9296 9.4898 33.6947 10.0562Z" fill="#03060E"/>
<path d="M64.0467 26.8836L35.8907 6.0432C33.8205 4.51099 30.9923 4.51099 28.9221 6.0432L0.766113 26.8836C2.08218 28.954 4.88049 29.477 6.85572 28.0149L31.1185 10.0563C31.8837 9.48983 32.9292 9.48983 33.6943 10.0563L57.9571 28.0149C59.9325 29.477 62.7307 28.9538 64.0467 26.8836Z" fill="#03060E"/>
<path d="M43.4053 17.2437L57.9573 28.0147C59.9409 29.483 62.7547 28.9498 64.0638 26.8579C65.236 24.9846 64.7701 22.5248 62.9939 21.21L49.4578 11.1909L43.4053 17.2437Z" fill="#03060E"/>
<path d="M21.4082 17.2436L6.85599 28.0147C4.87243 29.483 2.0586 28.9498 0.749474 26.8579C-0.422745 24.9846 0.0432406 22.5248 1.81936 21.21L15.3554 11.1909L21.4082 17.2436Z" fill="#03060E"/>
<path d="M29.4151 33.8681H22.8236C22.0421 33.8681 21.4087 33.2346 21.4087 32.4532V25.8616C21.4087 25.0802 22.0421 24.4468 22.8236 24.4468H29.4151C30.1965 24.4468 30.83 25.0802 30.83 25.8616V32.4532C30.83 33.2345 30.1965 33.8681 29.4151 33.8681Z" fill="#FF4136"/>
<path d="M29.4151 33.8681H22.8236C22.0421 33.8681 21.4087 33.2346 21.4087 32.4532V25.8616C21.4087 25.0802 22.0421 24.4468 22.8236 24.4468H29.4151C30.1965 24.4468 30.83 25.0802 30.83 25.8616V32.4532C30.83 33.2345 30.1965 33.8681 29.4151 33.8681Z" fill="#FF4136"/>
<path d="M29.4151 33.8681H22.8236C22.0421 33.8681 21.4087 33.2346 21.4087 32.4532V25.8616C21.4087 25.0802 22.0421 24.4468 22.8236 24.4468H29.4151C30.1965 24.4468 30.83 25.0802 30.83 25.8616V32.4532C30.83 33.2345 30.1965 33.8681 29.4151 33.8681Z" fill="#FF4136"/>
<path d="M41.9901 33.8681H35.3985C34.6171 33.8681 33.9836 33.2346 33.9836 32.4532V25.8616C33.9836 25.0802 34.6171 24.4468 35.3985 24.4468H41.9901C42.7715 24.4468 43.4049 25.0802 43.4049 25.8616V32.4532C43.4049 33.2345 42.7715 33.8681 41.9901 33.8681Z" fill="white"/>
<path d="M41.9901 33.8681H35.3985C34.6171 33.8681 33.9836 33.2346 33.9836 32.4532V25.8616C33.9836 25.0802 34.6171 24.4468 35.3985 24.4468H41.9901C42.7715 24.4468 43.4049 25.0802 43.4049 25.8616V32.4532C43.4049 33.2345 42.7715 33.8681 41.9901 33.8681Z" fill="#FF4136"/>
<path d="M41.9901 33.8681H35.3985C34.6171 33.8681 33.9836 33.2346 33.9836 32.4532V25.8616C33.9836 25.0802 34.6171 24.4468 35.3985 24.4468H41.9901C42.7715 24.4468 43.4049 25.0802 43.4049 25.8616V32.4532C43.4049 33.2345 42.7715 33.8681 41.9901 33.8681Z" fill="#FF4136"/>
<path d="M29.4151 46.2289H22.8236C22.0421 46.2289 21.4087 45.5955 21.4087 44.814V38.2225C21.4087 37.441 22.0421 36.8076 22.8236 36.8076H29.4151C30.1965 36.8076 30.83 37.441 30.83 38.2225V44.814C30.83 45.5955 30.1965 46.2289 29.4151 46.2289Z" fill="#FF4136"/>
<path d="M29.4151 46.2289H22.8236C22.0421 46.2289 21.4087 45.5955 21.4087 44.814V38.2225C21.4087 37.441 22.0421 36.8076 22.8236 36.8076H29.4151C30.1965 36.8076 30.83 37.441 30.83 38.2225V44.814C30.83 45.5955 30.1965 46.2289 29.4151 46.2289Z" fill="#FF4136"/>
<path d="M29.4151 46.2289H22.8236C22.0421 46.2289 21.4087 45.5955 21.4087 44.814V38.2225C21.4087 37.441 22.0421 36.8076 22.8236 36.8076H29.4151C30.1965 36.8076 30.83 37.441 30.83 38.2225V44.814C30.83 45.5955 30.1965 46.2289 29.4151 46.2289Z" fill="#FF4136"/>
<path d="M41.9901 46.2289H35.3985C34.6171 46.2289 33.9836 45.5955 33.9836 44.814V38.2225C33.9836 37.441 34.6171 36.8076 35.3985 36.8076H41.9901C42.7715 36.8076 43.4049 37.441 43.4049 38.2225V44.814C43.4049 45.5955 42.7715 46.2289 41.9901 46.2289Z" fill="white"/>
<path d="M41.9901 46.2289H35.3985C34.6171 46.2289 33.9836 45.5955 33.9836 44.814V38.2225C33.9836 37.441 34.6171 36.8076 35.3985 36.8076H41.9901C42.7715 36.8076 43.4049 37.441 43.4049 38.2225V44.814C43.4049 45.5955 42.7715 46.2289 41.9901 46.2289Z" fill="#FF4136"/>
<path d="M41.9901 46.2289H35.3985C34.6171 46.2289 33.9836 45.5955 33.9836 44.814V38.2225C33.9836 37.441 34.6171 36.8076 35.3985 36.8076H41.9901C42.7715 36.8076 43.4049 37.441 43.4049 38.2225V44.814C43.4049 45.5955 42.7715 46.2289 41.9901 46.2289Z" fill="#FF4136"/>
</svg>
