<svg width="16" height="16" viewBox="0 0 16 16" fill="none" xmlns="http://www.w3.org/2000/svg">
<path d="M10.3682 10L15.4381 4.93042C15.4505 4.9748 15.4572 5.0206 15.4578 5.06669V14.9334C15.4572 14.9794 15.4505 15.0252 15.4381 15.0696L10.3682 10Z" fill="#4E4E4E"/>
<path d="M14.9245 4.53333C14.9706 4.53395 15.0164 4.54068 15.0608 4.55333L9.99117 9.62293L4.92157 4.55333C4.96591 4.54068 5.01173 4.53395 5.05784 4.53333H14.9245Z" fill="#4E4E4E"/>
<path d="M4.54421 15.0696C4.53177 15.0252 4.52514 14.9794 4.52448 14.9334V5.06669C4.52514 5.0206 4.53177 4.9748 4.54421 4.93042L9.61408 10L4.54421 15.0696Z" fill="#4E4E4E"/>
<path d="M5.05784 15.4667C5.01173 15.466 4.96591 15.4593 4.92157 15.4467L9.99117 10.3771L15.0608 15.4467C15.0164 15.4593 14.9706 15.466 14.9245 15.4667H5.05784Z" fill="#4E4E4E"/>
<path d="M2.92448 4H0.257817C0.110541 4 -0.0088501 4.11939 -0.0088501 4.26667C-0.0088501 4.41394 0.110541 4.53333 0.257817 4.53333H2.92448C3.07176 4.53333 3.19115 4.41394 3.19115 4.26667C3.19115 4.11939 3.07176 4 2.92448 4Z" fill="#4E4E4E"/>
<path d="M0.257817 16H2.92448C3.07176 16 3.19115 15.8806 3.19115 15.7333C3.19115 15.5861 3.07176 15.4667 2.92448 15.4667H0.257817C0.110541 15.4667 -0.0088501 15.5861 -0.0088501 15.7333C-0.0088501 15.8806 0.110541 16 0.257817 16Z" fill="#4E4E4E"/>
<path d="M2.71943 7.10406C2.81369 7.21732 2.98191 7.23272 3.09516 7.13846C3.20842 7.04421 3.22382 6.87598 3.12956 6.76273L1.79623 5.16273C1.74557 5.10178 1.67042 5.06653 1.59116 5.06653C1.51191 5.06653 1.43676 5.10178 1.3861 5.16273L0.0527627 6.76273C-0.0414939 6.87598 -0.0260925 7.04421 0.0871627 7.13846C0.200418 7.23272 0.368639 7.21732 0.462896 7.10406L1.3245 6.06993V13.9302L0.462896 12.8961C0.368639 12.7828 0.200418 12.7674 0.0871627 12.8617C-0.0260925 12.9559 -0.0414939 13.1241 0.0527627 13.2374L1.3861 14.8374C1.43717 14.8977 1.51217 14.9324 1.59116 14.9324C1.67016 14.9324 1.74516 14.8977 1.79623 14.8374L3.12956 13.2374C3.22382 13.1241 3.20842 12.9559 3.09516 12.8617C2.98191 12.7674 2.81369 12.7828 2.71943 12.8961L1.85783 13.9302V6.06993L2.71943 7.10406Z" fill="#4E4E4E"/>
<path d="M15.7245 0C15.5772 0 15.4578 0.119391 15.4578 0.266667V2.93333C15.4578 3.08061 15.5772 3.2 15.7245 3.2C15.8718 3.2 15.9912 3.08061 15.9912 2.93333V0.266667C15.9912 0.119391 15.8718 0 15.7245 0Z" fill="#4E4E4E"/>
<path d="M4.52448 2.93333V0.266667C4.52448 0.119391 4.40509 0 4.25782 0C4.11054 0 3.99115 0.119391 3.99115 0.266667V2.93333C3.99115 3.08061 4.11054 3.2 4.25782 3.2C4.40509 3.2 4.52448 3.08061 4.52448 2.93333Z" fill="#4E4E4E"/>
<path d="M7.12953 0.096033C7.08424 0.0415765 7.01915 0.00737418 6.94861 0.00097074C6.87808 -0.0054327 6.80789 0.0164888 6.75353 0.0618997L5.15353 1.39523C5.09679 1.44888 5.06257 1.52209 5.0578 1.60003C5.06286 1.6779 5.09703 1.75101 5.15353 1.80483L6.75353 3.13817C6.8267 3.19923 6.92689 3.21663 7.01636 3.1838C7.10583 3.15097 7.17099 3.0729 7.1873 2.979C7.2036 2.8851 7.16857 2.78964 7.0954 2.72857L6.061 1.8667H13.9213L12.8869 2.72857C12.8137 2.78964 12.7787 2.8851 12.795 2.979C12.8113 3.0729 12.8764 3.15097 12.9659 3.1838C13.0554 3.21663 13.1556 3.19923 13.2287 3.13817L14.8287 1.80483C14.8853 1.75107 14.9195 1.67793 14.9245 1.60003C14.9232 1.52124 14.8884 1.44674 14.8287 1.39523L13.2287 0.0618997C13.1156 -0.0325042 12.9474 -0.0173416 12.853 0.0957664C12.7586 0.208874 12.7738 0.377096 12.8869 0.4715L13.9213 1.33337H6.061L7.0954 0.4715C7.20847 0.377222 7.22375 0.209155 7.12953 0.096033Z" fill="#4E4E4E"/>
</svg>
